<?xml version="1.0" encoding="utf-8"?>
<!-- Generator: Adobe Illustrator 23.0.1, SVG Export Plug-In . SVG Version: 6.00 Build 0)  -->
<svg version="1.1" id="Livello_1" xmlns="http://www.w3.org/2000/svg" xmlns:xlink="http://www.w3.org/1999/xlink" x="0px" y="0px"
	 viewBox="0 0 595.28 841.89" style="enable-background:new 0 0 595.28 841.89;" xml:space="preserve">
<style type="text/css">
	.st0{fill:#010202;}
</style>
<path class="st0" d="M595.68,842.64c0.08-1.27,0.22-2.54,0.22-3.8c0.01-186.06,0.01-372.12,0.01-558.18c0-92.07,0-184.14,0-276.21
	c0-1.19,0-2.37,0-3.71c-0.8-0.1-1.4-0.2-2.01-0.24c-0.64-0.04-1.28-0.01-1.92-0.01c-196.06,0-392.12,0-588.18,0.01
	c-1.11,0-2.22,0.14-3.32,0.22c0.08-0.16,0.15-0.45,0.24-0.46C1.36,0.22,2,0.24,2.64,0.24c197.81,0,395.61,0,593.52,0
	c0,1.33,0,2.65,0,3.98c0,278.75,0,557.51-0.03,836.26C596.13,841.18,596.68,842.11,595.68,842.64z"/>
<path class="st0" d="M342.23,117.36c-1.36-0.05-2.6,0.22-3.92,0.68c-2.25,0.78-4.66,1.11-7,1.6c-0.91,0.19-1.84,0.31-2.78,1.3
	c0.8,0.1,1.31,0.24,1.8,0.21c3.19-0.22,6.37-0.48,9.55-0.73c2.83-0.22,5.56,0.3,8.31,0.9c1.78,0.39,3.63,0.45,5.45,0.61
	c2.12,0.19,2.21,0.27,2.38,2.41c0.09,1.19,0.33,2.38,0.35,3.58c0.02,0.89-0.21,1.79-0.32,2.64c-1.2,0.05-1.42-0.53-1.38-1.22
	c0.19-2.8-1.98-4.14-3.61-5.79c-0.33-0.34-1.06-0.27-1.59-0.43c-6.71-2.05-13.45-1.19-20.2-0.32c-1.26,0.16-2.55,0.16-3.82,0.27
	c-1.78,0.15-2.08,0.34-2.4,2.06c-0.65,3.53-1.24,7.07-1.81,10.62c-0.55,3.47-1.06,6.95-1.55,10.43c-0.38,2.74-0.09,5.33,1.12,7.93
	c1.34,2.89,2.16,6.01,3.33,8.98c1.9,4.83,3.89,9.61,5.86,14.41c0.05,0.11,0.25,0.16,0.63,0.38c0.31-0.72,0.67-1.4,0.9-2.11
	c1.4-4.34,2.84-8.66,4.13-13.03c0.54-1.83,0.92-3.75,1.04-5.65c0.36-5.33,0.97-10.64,0.51-16.03c-0.2-2.35-1.32-4.03-2.49-5.81
	c-0.56-0.85-1.11-1.63,0.22-2.37c2.39,2.24,2.74,5.2,2.85,8.13c0.17,4.47,0.1,8.95,0.16,13.42c0.05,3.57-0.66,6.99-1.77,10.35
	c-1.58,4.78-3.15,9.56-4.73,14.35c-0.03,0.08-0.06,0.15-0.07,0.23c-0.49,3.65-1.97,7.01-3.18,10.45c-1.22,3.46-2.51,6.92-3.5,10.45
	c-1.74,6.16-3,12.43-3.12,18.87c-0.02,0.97,0.17,2.03-0.82,3.35c-0.06-1.26-0.12-2.02-0.12-2.77c-0.02-4.16,0.05-8.32-0.08-12.47
	c-0.09-2.94-0.27-5.91-0.76-8.81c-0.41-2.42-1.06-4.87-2.07-7.1c-1.17-2.6-1.73-5.49-3.58-7.81c-0.56-0.71-0.65-1.79-0.97-2.69
	c-1.9-5.34-3.81-10.69-5.72-16.03c-0.07-0.2-0.27-0.36-0.6-0.77c-0.47,1.09-0.96,1.99-1.24,2.95c-2,6.66-4.08,13.29-5.91,20
	c-1.78,6.56-3.46,13.17-3.78,19.99c-0.21,4.46,0,8.94,0,13.42c0,0.98-0.1,1.96-0.16,2.94c-0.17,0.02-0.33,0.03-0.5,0.05
	c-0.17-0.38-0.47-0.74-0.5-1.13c-0.14-1.75-0.14-3.52-0.33-5.27c-0.18-1.74-0.54-3.46-0.79-5.19c-0.13-0.87-0.34-1.76-0.26-2.61
	c0.43-4.61-0.98-8.89-2.49-13.09c-1.26-3.52-3-6.86-4.51-10.29c-0.96-2.18-1.82-4.41-2.83-6.57c-0.76-1.63-1.69-3.19-2.54-4.78
	c-0.18,0.01-0.37,0.02-0.55,0.03c-0.35,1.09-0.77,2.16-1.03,3.27c-2.14,9.37-2.36,18.86-1.54,28.39c0.42,4.85,1.35,9.66,1.66,14.51
	c0.46,7.21,2.32,14.17,3.39,21.27c1.3,8.61,2.65,17.21,3.97,25.81c0.08,0.52,0.01,1.06-0.29,1.63c-1.28-7.22-2.62-14.43-3.84-21.66
	c-1.11-6.54-2.11-13.09-3.14-19.64c-0.63-4.02-1.18-8.06-1.88-12.07c-0.47-2.67-0.97-5.36-1.76-7.94
	c-1.27-4.12-2.75-8.17-4.25-12.21c-0.47-1.25-1.15-2.5-2.01-3.51c-2.79-3.28-5.41-6.75-8.92-9.34c-0.85-0.63-1.2-1.36-1.32-2.39
	c-0.46-4.2-1.05-8.38-1.52-12.58c-0.57-5.08-0.8-10.21-1.64-15.25c-1.12-6.75-1.49-13.68-4.36-20.05c-0.95-2.1-1.72-4.3-2.86-6.3
	c-0.77-1.36-1.88-2.63-3.1-3.6c-2.32-1.85-3.15-2.34-5.97,0.07c-0.06-2.21,1.91-3.08,2.68-4.62c0.81-1.63,2.08-3.02,3.14-4.52
	c1.06-1.5,2.1-3.02,3.16-4.52c1.04-1.47,2.08-2.94,3.2-4.52c3.08,1.95,5.42,3.96,6.79,7.17c3.19,7.51,4.77,15.37,5.74,23.4
	c0.68,5.62,1.26,11.26,1.87,16.89c0.48,4.37,0.93,8.74,1.43,13.1c0.06,0.51,0.29,1.1,0.64,1.47c2.86,3.01,5.76,5.97,8.66,8.94
	c0.16,0.16,0.37,0.27,0.56,0.4c1.21-1.6,2.22-4.96,2.08-7.15c-0.53-8.2-0.97-16.42-1.67-24.6c-0.76-8.91-2.38-17.71-4.12-26.48
	c-0.63-3.13-1.72-6.02-4.98-7.41c0.28-0.09,0.56-0.18,1.15-0.37c-0.85-0.89-1.51-1.6-2.31-2.43c-0.51,0.66-0.87,1.12-1.32,1.71
	c0.66,0.42,1.17,0.76,1.69,1.09c-1.09-0.08-2.17-0.15-3.5-0.24c0.37-0.56,0.65-1.09,1.02-1.54c3.27-3.93,6.63-7.79,9.83-11.78
	c2.73-3.41,5.27-6.98,7.9-10.48c1.63-2.17,2.51-4.58,2.53-7.34c0.03-6,0.15-11.99,0.22-17.99c0.02-1.19,0-2.38,0.4-3.59
	c0.16,3.34,0.32,6.68,0.49,10.02c0.19,3.67,0.38,7.34,0.58,11.01c0.12,2.24,1.14,3.95,3.09,5.09c3.3,1.93,6.53,4.01,9.93,5.75
	c3.05,1.56,6.32,2.7,9.46,4.09c2.71,1.2,5.55,1.42,8.44,1.27c0.66-0.03,1.32-0.42,1.92-0.75c0.43-0.24,0.77-0.66,1.5-0.74
	c-0.31,0.59-0.48,1.35-0.96,1.75c-1.33,1.14-2.73,2.2-4.18,3.18c-3.89,2.65-7.86,5.18-11.71,7.88c-2.35,1.64-2.72,4.12-2.45,6.82
	c0.45,4.53,0.8,9.06,1.18,13.59c0.02,0.28-0.03,0.57-0.07,1.38c-1.51-3.31-2.15-6.29-2.39-9.39c-0.2-2.54-0.33-5.1-0.74-7.61
	c-0.24-1.47-0.77-2.96-1.49-4.26c-0.45-0.83-1.38-1.59-2.27-1.94c-2.38-0.92-4.89-1.49-7.28-2.39c-1.78-0.67-3.44-1.64-5.16-2.47
	c-0.54-0.26-1.08-0.53-1.88-0.92c0,0.79-0.09,1.25,0.01,1.67c2.25,8.86,3.44,17.88,4.11,26.97c0.44,5.98,0.92,11.95,1.34,17.93
	c0.24,3.34,0.3,6.71,0.65,10.04c0.17,1.64,0.64,3.31,1.31,4.81c2.28,5.11,4.75,10.13,7.07,15.22c0.79,1.72,1.37,3.54,2.15,5.59
	c0.31-0.58,0.62-0.98,0.75-1.44c2.07-7.06,4.25-14.08,6.11-21.19c0.97-3.69,1.59-7.51,1.96-11.31c0.21-2.09-0.39-4.26-0.68-6.39
	c-0.12-0.82-0.41-1.62-0.63-2.43c0.19-0.07,0.37-0.14,0.56-0.21c0.65,1.48,1.31,2.97,2.13,4.84c0.5-2.28,1.02-4.21,1.32-6.17
	c0.59-3.78,1.11-7.58,1.55-11.38c0.42-3.59,0.39-7.16-0.61-10.7c-0.91-3.22-1.26-3.5-4.82-2.78c1.57-1.61,2.79-3.23,4.35-4.38
	c3.05-2.25,5.47-5.1,8.04-7.81c1.14-1.2,2.07-2.61,3.14-3.88c0.4-0.48,0.89-0.92,1.43-1.25c3.37-2.1,5.84-5.17,8.64-7.88
	c2.43-2.36,4.78-4.8,7.17-7.2c0.12,0.11,0.23,0.21,0.35,0.32c-0.93,1.14-1.94,2.23-2.78,3.43c-1.57,2.25-1.51,3.55,0.67,5.12
	c4.33,3.13,8.76,6.14,13.25,9.04c1.59,1.02,3.47,1.6,5.25,2.3c1.32,0.52,2.57,0.17,3.55-0.79c0.97-0.94,1.8-2.02,2.68-3.06
	c0.38-0.45,0.72-0.94,1.49-1.19c-0.4,0.82-0.69,1.72-1.23,2.45c-2.51,3.4-5.41,6.46-8.56,9.28c-1.07,0.96-2.18,1.91-3.07,3.01
	c-2.54,3.13-5.76,5.22-9.49,6.62c-0.21,0.08-0.37,0.28-0.55,0.43c0.24,0.33,0.45,0.63,0.67,0.93L342.23,117.36z M344.74,112.87
	c-1.34-0.74-2.18-1.25-3.07-1.68c-2.35-1.16-4.82-2.12-7.06-3.46c-2.74-1.64-5.29-3.59-7.93-5.38c-0.43-0.29-0.93-0.47-1.89-0.94
	c1.73,6.59,0.34,12.67-0.61,19.22c1.34-0.49,2.34-0.9,3.36-1.23c3.54-1.15,7.02-2.57,10.64-3.31
	C340.6,115.58,342.25,114.17,344.74,112.87z"/>
<path class="st0" d="M428.44,296.71c5.09,0.57,9.87,0.3,14.58,0.06c4.72-0.24,9.4-1.33,14.13-1.95c-3.41,1.55-6.96,2.78-10.73,2.92
	c-5.51,0.21-11.03,0.17-16.55,0.27c-1.91,0.04-3.82,0.22-5.73,0.27c-1.42,0.04-2.83-0.04-4.25-0.04c-8.71,0.01-17.44-0.49-26.07,1.1
	c-2.27,0.42-4.5,1.11-6.75,1.66c-1.15,0.28-2.3,0.52-3.45,0.78c-0.06-0.15-0.13-0.3-0.19-0.45c0.48-0.23,0.95-0.52,1.45-0.69
	c4.39-1.49,8.78-3,13.19-4.42c6.03-1.95,11.21-5.23,15.96-9.42c5.21-4.59,10.73-8.83,16.1-13.23c1.29-1.05,2.54-2.15,4.26-3.61
	c-1.36-0.17-2.25-0.39-3.13-0.38c-9.92,0.11-19.83,0.27-29.7,1.35c-6.93,0.76-13.72,2.1-20.25,4.73c-15.47,6.22-31,12.29-46.5,18.42
	c-0.41,0.16-0.84,0.28-1.41,0.05c0.75-0.36,1.49-0.74,2.26-1.06c11.64-4.82,23.31-9.59,34.93-14.48c5-2.1,9.89-4.46,14.83-6.71
	c0.44-0.2,0.87-0.42,1.33-0.54c5.73-1.45,10.14-5.2,14.74-8.58c1.65-1.21,2.89-2.96,4.41-4.37c2.91-2.72,5.89-5.37,8.81-8.08
	c0.55-0.51,0.96-1.16,1.79-2.19c-1.73,0-2.89-0.09-4.04,0.01c-9.33,0.87-18.18,3.61-26.77,7.2c-4.35,1.82-8.57,3.92-12.86,5.88
	c-0.62,0.28-1.26,0.5-1.9,0.74c-0.08-0.15-0.15-0.3-0.23-0.44c1.32-0.83,2.58-1.8,3.98-2.45c3.87-1.8,7.47-3.97,10.76-6.7
	c2.27-1.88,4.72-3.56,7.06-5.36c3-2.32,4.58-5.69,6.41-8.85c1.19-2.06,2-4.35,3.12-6.45c0.37-0.7,1.13-1.32,1.86-1.68
	c3.58-1.77,7.2-3.46,10.82-5.13c3.92-1.81,7.86-3.57,11.78-5.36c5.96-2.72,11.78-5.7,17.2-9.42c2.71-1.86,5.38-3.7,7.64-6.11
	c1.51-1.61,2.55-3.46,3.32-5.49c0.88-2.33,0.66-2.92-1.42-4.42c-0.18-0.13-0.34-0.3-0.74-0.66c0.59-0.05,0.95-0.18,1.25-0.09
	c5.89,1.78,11.78,3.57,17.65,5.38c2.06,0.64,1.99,0.78,1.5,2.89c-0.9,3.87-3.61,6.4-6.53,8.59c-3.37,2.54-6.93,4.89-10.63,6.9
	c-5.61,3.06-11.36,5.87-17.14,8.59c-5.57,2.61-11.24,5-16.91,7.38c-1.21,0.51-1.88,1.21-2.41,2.41c-1,2.26-2.25,4.41-3.41,6.6
	c-0.7,1.31-1.43,2.61-2.34,4.29c2.8,0.29,5.19,0.48,7.42-0.41c7.64-3.04,15.29-6.08,22.83-9.36c4.46-1.94,8.72-4.33,13.08-6.5
	c1.28-0.64,2.65-1.12,3.89-1.84c3.45-1.99,6.85-4.06,10.26-6.11c0.2-0.12,0.39-0.3,0.52-0.49c1.22-1.74,2.43-3.48,3.62-5.24
	c0.16-0.24,0.18-0.59,0.21-0.7c-0.45-1.71-3.03,0.06-2.97-2.33c0.43,0.04,0.89-0.01,1.28,0.14c5.75,2.18,11.54,4.27,17.22,6.62
	c3.77,1.56,7.54,3.04,11.56,3.68c2.17,0.34,4.39,0.35,6.65,0.52c-0.04,0.06-0.12,0.36-0.32,0.49c-1.58,1.01-2.34,2.56-2.94,4.25
	c-1.45,4.1-2.21,8.34-2.65,12.65c-0.25,2.47-0.61,4.93-0.67,7.4c-0.06,2.46,0.14,4.93,0.35,7.39c0.2,2.32,0.98,4.36,3.76,5.34
	c-1.12,0.58-1.87,0.39-2.49-0.06c-1.61-1.16-3.17-2.4-4.76-3.59c-3.64-2.73-7.25-5.51-10.96-8.14c-2.31-1.64-4.69-0.83-7.05,0.2
	c-3.87,1.7-7.8,3.27-11.7,4.89c-0.27,0.11-0.57,0.17-1.14,0.33c2.13-2.47,4.73-3.65,7.34-4.81c2.33-1.04,4.72-1.96,7.01-3.07
	c1.06-0.51,2.01-1.3,2.95-2.03c1.34-1.05,1.91-2.41,1.91-4.18c0-3.75,0.16-7.5,0.34-11.24c0.05-1.05,0.36-2.09,0.62-3.53
	c-0.94,0.36-1.48,0.48-1.91,0.75c-7.52,4.75-15.5,8.61-23.7,12.02c-5.61,2.34-11.22,4.66-16.84,6.97c-3.25,1.33-6.56,2.54-9.76,3.97
	c-1.36,0.61-2.65,1.51-3.75,2.52c-4.07,3.73-8.03,7.57-12.06,11.34c-1.44,1.34-2.96,2.58-4.63,4.03c0.63,0.09,1.13,0.24,1.62,0.22
	c7.59-0.26,15.19-0.42,22.77-0.86c3.33-0.19,6.65-0.86,9.94-1.49c2.46-0.47,4.7-1.55,6.71-3.07c0.49-0.37,1.05-0.64,1.96-1.18
	c-0.64,1.84-2.24,2.26-3.1,3.84c2.51-0.37,4.77-0.72,7.05-1.02c0.78-0.1,1.58,0,2.37-0.1c4.45-0.55,8.85-1.41,13.01-3.09
	c1.97-0.8,3.81-1.97,5.61-3.14c1.4-0.91,1.38-1.57,0.35-4.01c1.81,0.47,3.39,1.1,4.78,2.06c3.56,2.48,7.43,4.42,11.45,5.89
	c4.85,1.77,8.79,5.11,13.47,7.12c2.31,0.99,4.51,2.25,6.82,3.42c-0.26,0.26-0.37,0.44-0.45,0.43c-2.39-0.28-3.85,0.64-4.64,3.03
	c-2.2,6.66-4.67,13.25-4.81,20.39c-0.01,0.7,0.19,1.41,0.37,2.1c0.15,0.61,0.4,1.19,0.65,1.88c-0.98,0.41-1.66-0.18-2.3-0.51
	c-4.36-2.18-8.74-4.31-12.99-6.69c-1.71-0.95-3.19-2.39-4.6-3.78c-3.19-3.14-6.21-6.42-8.06-10.6c-0.33-0.74-0.7-1.59-1.97-1.76
	c0.14,0.61,0.19,1.06,0.35,1.47c1.17,2.89,2.48,5.72,3.51,8.66c0.76,2.17,1.21,4.46,1.69,6.72c0.48,2.25,0.78,4.55,1.27,6.8
	c0.45,2.06,0.4,2.27-1.51,3.07c-1.47,0.61-2.94,1.26-4.44,1.77c-0.93,0.32-0.96,0.22-2.25-0.74c0.73-0.36,1.34-0.66,1.95-0.94
	c2.73-1.28,4.01-4.01,3.84-6.99c-0.33-6.06-2.37-11.53-5.06-16.87c-0.93-1.85-1.65-3.81-2.43-5.74c-0.48-1.19-1.22-1.81-2.57-1.6
	c-3.47,0.55-6.95,1.02-10.41,1.59c-3.63,0.59-7.25,1.24-10.87,1.89c-2.65,0.48-4.95,1.54-6.97,3.45c-2.2,2.07-4.74,3.79-7.09,5.71
	c-3.89,3.19-7.76,6.41-11.62,9.63C429.11,295.53,428.93,295.98,428.44,296.71z M494.72,289.61c0.6-4.08,0.95-7.62,1.69-11.08
	c0.74-3.46,1.89-6.84,2.88-10.37c-1.95-0.45-2.92,1.16-4.34,1.49c-1.55,0.36-3.03,0.99-4.58,1.37c-1.46,0.36-2.97,0.54-4.46,0.82
	c-1.51,0.28-3.02,0.58-4.71,0.9c0.35,0.65,0.46,1.06,0.72,1.32c3.09,3.17,5.28,6.95,7.49,10.75
	C490.53,286.74,492.45,287.98,494.72,289.61z"/>
<path class="st0" d="M326.38,345.86c0.52,0.46,1.12,0.86,1.55,1.4c4.6,5.74,9.14,11.53,13.76,17.25c3.16,3.91,6.24,7.93,9.73,11.53
	c2.18,2.24,4.05,4.72,6.19,6.94c2.25,2.34,4.88,4.38,7.58,6.21c2.96,2.01,6.19,3.63,9.29,5.44c2.06,1.2,4.1,2.45,6.16,3.66
	c1.55,0.91,3.15,1.72,5.46,2.43c-0.47-1.44-0.71-2.33-1.06-3.18c-3.73-9.05-9.26-16.96-15.58-24.35c-3.11-3.64-6.46-7.08-9.7-10.62
	c-0.25-0.27-0.42-0.6-0.63-0.9c0.11-0.12,0.22-0.24,0.33-0.37c1.11,0.92,2.34,1.74,3.31,2.79c2.93,3.21,6.16,6.03,9.83,8.38
	c2.69,1.72,5.24,3.66,7.88,5.46c0.72,0.49,1.52,0.95,2.35,1.18c4.31,1.18,8.59,2.61,13.12,2.65c1.66,0.02,2.83,0.56,3.89,1.86
	c1.82,2.22,3.83,4.28,5.77,6.4c4.25,4.67,8.35,9.48,12.8,13.95c5.16,5.2,10.06,10.78,16.53,14.46c2.72,1.55,5.4,3.27,8.78,3.47
	c3.51,0.2,3.98,0.13,5.31-3.27c0.22,0.43,0.49,0.72,0.49,1c0.1,6.15,0.18,12.3,0.23,18.45c0.02,2.06-0.17,2.1-2.15,2.24
	c-4.49,0.31-7.96-1.94-11.36-4.37c-1.1-0.79-2.05-1.82-3.19-2.53c-2.96-1.84-5.29-4.37-7.68-6.83c-3.56-3.67-7.16-7.3-10.69-11
	c-1.05-1.09-1.9-2.37-2.91-3.5c-3.44-3.89-6.9-7.76-10.39-11.61c-0.35-0.38-0.89-0.72-1.39-0.81c-3.85-0.71-7.7-1.37-11.56-2.02
	c-0.44-0.07-0.9-0.01-1.66-0.01c0.72,2.72,1.34,5.15,3.03,7.17c5.06,6.07,10,12.26,15.21,18.2c3.78,4.32,7.89,8.36,11.93,12.44
	c2.52,2.54,5.13,4.99,7.8,7.37c1.72,1.54,3.53,3.06,6.12,2.88c0.4-0.03,0.87,0.29,1.24,0.56c0.9,0.64,1.84,0.86,2.71,0.65
	c1.34-0.98-0.85-2.88,1.44-3.59c0,0.81,0.04,1.49-0.01,2.16c-0.31,4.87-0.68,9.73-0.95,14.6c-0.2,3.49-0.34,6.98-0.37,10.47
	c-0.02,1.99,0.14,3.99,0.4,5.96c0.35,2.7,1.66,4.98,3.47,6.98c2.63,2.91,5.28,5.79,7.92,8.69c0.69,0.76,1.36,1.54,1.79,2.67
	c-0.42-0.31-0.89-0.58-1.25-0.95c-2.97-3.14-5.91-6.3-8.87-9.45c-0.55-0.58-1.11-1.15-1.64-1.76c-1.62-1.87-3.57-2.69-6.11-2.66
	c-4.02,0.04-7.97,0.49-11.9,1.29c-2.59,0.53-5.16,1.12-7.74,1.67c-2.77,0.58-5.32,1.69-7.77,3.07c-1.67,0.94-2.75,2.29-3.44,4.18
	c-0.08-0.59-0.32-1.21-0.2-1.75c0.37-1.55,0.81-3.09,1.35-4.59c1.53-4.2,3.13-8.37,4.7-12.55c1.17-3.12,0.35-5.68-1.88-8.1
	c-3.02-3.28-5.83-6.75-8.91-10.35c2.53,0.83,4.08,2.02,6.46,4.8c1.71,2,3.36,4.06,5.19,5.94c1.04,1.07,2.37,1.88,3.64,2.7
	c1.06,0.68,2.25,0.73,3.46,0.32c2.35-0.8,4.68-1.64,7.07-2.3c1.76-0.48,3.59-0.7,5.39-1.04c0.65-0.12,1.31-0.22,2.34-0.39
	c-0.62-0.76-0.91-1.22-1.3-1.56c-6.87-5.79-13.02-12.27-18.81-19.12c-3.92-4.64-7.86-9.27-11.77-13.92
	c-2.21-2.63-4.3-5.36-6.59-7.91c-0.99-1.11-2.24-2.06-3.54-2.8c-4.86-2.78-9.79-5.43-14.67-8.16c-1.59-0.89-3.13-1.88-4.95-2.98
	c0.09,0.65,0.08,1.15,0.24,1.59c2.51,7.08,4.95,14.2,7.62,21.22c1.16,3.05,2.75,5.94,4.29,8.83c1.26,2.35,3.04,4.3,5.24,5.85
	c0.48,0.34,0.88,0.81,1.09,1.56c-1.14-0.56-2.28-1.13-3.72-1.84c0.46,2.22,1.5,3.82,2.31,5.51c0.41,0.86,0.86,1.71,1.21,2.59
	c1.87,4.72,4.53,8.98,7.74,12.88c0.8,0.97,1.85,1.74,2.8,2.58c2.14,1.86,2.67,1.88,5.03,0.18c0.24,3.14-0.91,5.98-1.42,8.92
	c-0.67,3.83-1,7.72-1.47,11.59c-0.1,0.86,0,1.79-0.3,2.56c-1.45,3.78-1.69,7.79-2.4,11.71c-0.34,1.86-0.65,3.73-1,5.76
	c-0.27-0.32-0.39-0.42-0.46-0.55c-0.5-0.98-0.76-2.32-1.55-2.85c-0.94-0.63-2.34-0.76-3.55-0.77c-3.98-0.04-7.98-0.11-11.94,0.19
	c-2.85,0.22-5.68,0.89-8.45,1.6c-1.1,0.28-2.03,1.2-3.27,1.98c-0.07-0.6-0.24-1.1-0.17-1.57c0.27-1.82,0.64-3.62,0.92-5.43
	c0.46-2.92,0.93-5.84,1.33-8.77c0.36-2.68,1.77-4.93,2.93-7.28c0.25-0.5,0.71-0.91,0.87-1.43c1.04-3.45,3.69-5.73,5.95-8.3
	c0.64-0.73,1.18-1.55,1.77-2.33c-0.13-0.12-0.27-0.24-0.4-0.36c-0.44,0.26-0.92,0.46-1.31,0.78c-2.34,1.93-4.66,3.89-6.98,5.85
	c-2.29,1.94-4.91,3.25-7.66,4.39c-1.53,0.63-2.92,1.62-4.34,2.51c-1.94,1.21-2.11,1.21-3.55-0.49c-0.98-1.16-1.99-2.29-2.91-3.49
	c-0.47-0.61-1.01-1.31-0.13-2.39c0.44,0.39,0.9,0.74,1.28,1.15c2.31,2.56,5.17,2.89,8.4,1.71c6.38-2.33,11.08-6.88,15.9-11.32
	c1-0.92,2.07-1.76,3.13-2.61c1.03-0.82,1.25-1.74,0.65-2.95c-1.58-3.13-3.09-6.3-4.68-9.43c-1.63-3.21-3.31-6.38-4.98-9.57
	c-1.29-2.46-3.05-4.39-5.55-5.77c-2.65-1.47-5.04-3.37-7.59-5.03c-4.22-2.74-8.46-5.44-12.72-8.13c-0.36-0.23-0.84-0.25-1.7-0.49
	c1.05,4.94,2.76,9.34,4.37,13.71c1.61,4.38,4.02,8.46,6.17,12.87c-0.45-0.42-0.85-0.72-1.15-1.1c-2.72-3.41-4.8-7.15-6.1-11.34
	c-1.49-4.81-3.05-9.6-4.59-14.4c-0.02-0.08-0.05-0.15-0.08-0.23c-2.89-6.76-4.45-13.96-6.88-20.86c-1.88-5.35-4.19-10.55-7.34-15.32
	c-0.91-1.38-1.75-2.81-2.28-4.52c0.39,0.41,0.84,0.78,1.18,1.23c3.1,4.17,6.09,8.43,9.3,12.51c2.96,3.77,6.43,7.08,10.59,9.53
	c6.75,3.97,13.33,8.22,19.75,12.71c1.29,0.9,2.68,1.65,4.47,2.75c-0.37-1.6-0.54-2.76-0.92-3.85c-2.23-6.42-4.41-12.86-6.8-19.22
	c-3.52-9.4-7.96-18.25-14.4-26.13c-7.53-9.22-14.53-18.88-21.75-28.36c-0.22-0.29-0.27-0.7-0.4-1.05L326.38,345.86z M370.28,487.88
	c1.42-0.18,2.38-0.15,3.24-0.43c3.23-1.08,6.54-1.4,9.91-1.45c2.55-0.04,5.11-0.08,7.66-0.17c0.41-0.01,0.82-0.26,1.65-0.55
	c-5.2-4.14-7.38-9.95-10.38-15.14c-0.37,0.11-0.56,0.11-0.66,0.21c-0.27,0.28-0.57,0.58-0.75,0.92c-1.93,3.73-4.72,6.79-7.56,9.84
	C371.81,482.82,371.17,485.08,370.28,487.88z"/>
<path class="st0" d="M172.35,407.27c2.17-4.26,5.1-7.93,8.9-10.8c4.34-3.27,8.85-6.32,13.26-9.49c1.16-0.84,2.31-1.72,3.34-2.7
	c1.1-1.05,2.31-1.86,3.65-2.6c2.02-1.12,3.8-2.64,5.73-3.93c5.4-3.59,10.55-7.5,15.16-12.07c1.87-1.85,3.45-3.99,5.18-5.98
	c0.54-0.63,1.12-1.22,1.68-1.83c0.14,0.11,0.28,0.23,0.42,0.34c-0.41,0.63-0.79,1.28-1.23,1.89c-3.15,4.33-6.36,8.62-9.45,13
	c-2.42,3.42-4.01,7.27-5.12,11.29c-0.97,3.53-1.61,7.14-2.56,10.68c-1.08,4-2.34,7.96-3.51,11.94c-0.56,1.89-1.09,3.79-1.8,6.26
	c1.34-0.78,2.25-1.21,3.05-1.8c5.64-4.21,11.3-8.38,16.85-12.7c7.3-5.67,13.75-12.18,19.09-19.77c1.47-2.09,3.08-4.08,4.65-6.11
	c0.28-0.36,0.67-0.65,1.45-1.4c-0.16,0.99-0.11,1.52-0.32,1.89c-0.73,1.24-1.61,2.39-2.33,3.63c-1.08,1.86-2.06,3.77-3.1,5.65
	c-0.43,0.77-0.8,1.6-1.38,2.24c-3.09,3.45-4.49,7.74-5.77,12.01c-1.08,3.58-1.66,7.3-2.49,10.96c-0.53,2.33-1.17,4.63-1.64,6.97
	c-0.36,1.76-0.54,3.55-0.8,5.32c0.16,0.1,0.33,0.19,0.49,0.29c0.81-0.59,1.66-1.15,2.42-1.79c7.49-6.29,13.38-13.95,18.51-22.19
	c2.57-4.13,4.86-8.44,7.29-12.66c0.19-0.32,0.47-0.6,0.7-0.89c0.14,0.07,0.29,0.13,0.43,0.2c-0.57,1.41-0.96,2.93-1.74,4.2
	c-2.33,3.78-3.79,7.89-5.09,12.09c-0.95,3.05-1.92,6.09-2.85,9.15c-0.21,0.68-0.39,1.41-0.38,2.12c0.02,4.4,0.11,8.81,1.27,13.08
	c0.54,1.97,0.52,3.57-0.74,5.34c-1.61,2.27-2.83,4.81-4.23,7.23c-3.04,5.25-6.26,10.41-9.08,15.78c-2.78,5.28-5.96,10.41-7.74,16.16
	c-0.91,2.96-1.71,6-2.14,9.06c-0.27,1.91,0.06,3.98,0.48,5.9c0.57,2.6,1.49,3.03,4.18,2.55c0.22-0.04,0.45-0.05,1.26-0.14
	c-0.94,0.64-1.39,1.1-1.93,1.29c-5.91,1.97-11.83,3.91-17.76,5.83c-1.7,0.55-1.76,0.43-2.42-1.23c-1.63-4.12-0.86-8.14,0.5-12.12
	c0.77-2.27,1.56-4.53,2.5-6.74c0.87-2.05,1.9-4.05,2.95-6.02c2.54-4.8,5.12-9.57,7.72-14.34c0.61-1.12,1.43-2.12,2.09-3.21
	c2.8-4.66,5.58-9.32,8.34-14c0.23-0.38,0.37-0.92,0.31-1.35c-0.55-4.27-1.15-8.54-1.75-12.8c-0.01-0.07-0.08-0.13-0.24-0.36
	c-1.89,0.59-3.53,1.81-4.64,3.34c-2.86,3.93-5.46,8.05-8.13,12.11c-1.93,2.94-3.94,5.83-5.68,8.87c-3.01,5.26-5.88,10.6-8.74,15.94
	c-1.39,2.6-2.64,5.27-3.93,7.92c-0.38,0.79-0.69,1.62-1.04,2.42c-1.13,2.56-1.33,5.07,0.42,7.47c-0.39-0.09-0.77-0.18-1.43-0.34
	c0.18,1.18,0.32,2.06,0.49,3.13c0.82-0.22,1.37-0.37,2.06-0.56c-0.29-0.69-0.5-1.18-0.71-1.68c0.9,0.63,1.8,1.26,2.88,2.02
	c-0.7,0.25-1.43,0.57-2.2,0.76c-4.89,1.2-9.82,2.24-14.67,3.58c-4.66,1.28-9.44,2.2-13.9,4.22c-1.68,0.76-3.13,1.61-4.08,3.15
	c-2.57,4.14-5.09,8.3-7.61,12.47c-0.45,0.74-0.82,1.53-1.53,2.18c0.15-0.48,0.24-1,0.46-1.44c1.51-3,3.04-5.98,4.58-8.96
	c0.25-0.49,0.69-0.87,0.94-1.36c0.22-0.43,0.31-0.92,0.44-1.39c0.17-0.6,0.24-1.25,0.49-1.81c0.78-1.7,0.71-3.36,0.19-5.13
	c-1.38-4.72-3.59-9.05-6.01-13.29c-0.91-1.6-1.73-3.26-2.76-4.77c-1.25-1.84-2.6-3.62-4.04-5.32c-1.68-1.98-3.55-3.73-6.62-2.81
	c-0.01-0.17-0.02-0.34-0.03-0.51c0.6-0.28,1.17-0.75,1.79-0.8c1.66-0.14,3.35-0.18,5.02-0.11c4.62,0.2,9.24,0.5,13.86,0.7
	c3.2,0.14,5.08-1.72,6.6-4.3c2.39-4.04,4.94-7.99,7.57-12.23c-0.26,3.07-1.15,5.05-3.3,8.67c-1.3,2.19-2.74,4.31-3.97,6.54
	c-0.61,1.1-0.94,2.37-1.28,3.6c-0.43,1.54-0.12,2.92,0.87,4.28c2.05,2.84,3.95,5.79,5.87,8.73c0.43,0.66,0.62,1.46,0.97,2.17
	c0.26,0.53,0.6,1.02,1.03,1.75c0.41-0.59,0.7-0.88,0.84-1.22c5.28-12.77,12.56-24.41,20.19-35.87c2.7-4.05,5.31-8.16,7.84-12.33
	c0.77-1.27,1.32-2.75,1.63-4.21c1.24-5.7,2.31-11.44,3.52-17.15c0.35-1.68,0.94-3.31,1.51-5.29c-0.67,0.34-1.09,0.49-1.43,0.75
	c-5.67,4.29-11.39,8.53-16.98,12.93c-2.63,2.07-5.1,4.37-7.49,6.71c-2.36,2.32-4.17,5.05-5.08,8.3c-0.12,0.42-0.37,0.8-1.01,1.09
	c0.15-1.3,0.31-2.6,0.46-3.9c-0.15-0.07-0.31-0.14-0.46-0.22c-1.25,1.05-2.58,2.01-3.74,3.16c-2.66,2.63-5.3,5.3-7.84,8.05
	c-2.72,2.95-5.13,6.1-6.27,10.07c-0.65,2.25-0.52,2.81,1.6,3.61c0.28,0.1,0.57,0.15,0.85,0.62c-2.76,0.32-5.5,0.73-8.27,0.95
	c-4.69,0.37-9.3,1.17-13.79,2.6c-0.52,0.16-1.11,0.2-1.66,0.16c-4.2-0.31-8.25,0.69-12.35,1.3c-3.53,0.53-7.05,1.09-10.69,1.27
	c0.45-0.2,0.88-0.45,1.34-0.58c1.38-0.38,2.84-0.56,4.16-1.08c2.7-1.06,2.76-1.2,2.41-4.07c-0.21-1.73-0.82-3.42-1.36-5.09
	c-0.69-2.11-1.35-4.25-2.26-6.27c-1.38-3.04-2.82-6.08-4.53-8.94c-0.96-1.6-2.71-2.58-4.7-2.38c-2.37,0.24-4.72,0.73-7.07,1.11
	c-0.51,0.08-1.02,0.18-1.56,0.14c2.17-1.31,4.6-1.72,7.04-2.02c3.71-0.44,7.44-0.79,11.16-1.22c3.09-0.36,6.16-0.96,9.25-1.1
	c2.11-0.09,4.26,0.43,6.38,0.71c0.55,0.07,1.08,0.41,1.62,0.4c3.61-0.07,6.57,1.79,9.7,3.17c0.97,0.43,2,0.75,3,1.12
	c0.19-0.26,0.38-0.53,0.57-0.79c-0.48-0.25-0.97-0.46-1.42-0.75c-2.77-1.74-5.66-3.33-8.27-5.29c-2.15-1.61-3.97-3.66-5.95-5.5
	c-1.34-1.25-2.68-2.5-4.05-3.71c-1.59-1.4-1.63-1.51-0.45-3.33c0.86-1.34,1.7-2.69,2.6-4.01c0.45-0.67,1.03-1.19,2.19-0.79
	c-0.25,0.58-0.41,1.08-0.67,1.5c-1.05,1.69-1.48,3.28-0.83,5.4c0.38,1.26,0.85,2.2,1.62,3.21c3.68,4.85,8.65,7.97,13.89,10.81
	c1.75,0.95,3.4,2.09,5.07,3.19c1.07,0.71,2,0.79,3-0.19c2.56-2.52,5.18-4.97,7.75-7.48c2.57-2.52,5.1-5.07,7.63-7.62
	c1.9-1.91,3.14-4.11,3.72-6.83c0.68-3.19,1.87-6.27,2.74-9.43c1.34-4.85,2.59-9.72,3.87-14.58c0.06-0.21-0.02-0.46-0.05-0.94
	c-0.56,0.21-1.1,0.28-1.49,0.56c-4.23,3.02-8.63,5.84-12.59,9.18c-3.03,2.55-5.51,5.76-8.25,8.67c-0.32,0.34-0.72,0.59-1.09,0.89
	C172.29,407.21,172.35,407.27,172.35,407.27z M166.32,437.75c-0.56-0.28-0.88-0.54-1.24-0.61c-4.36-0.81-8.35-2.57-12.34-4.44
	c-2.09-0.98-4.45-0.88-7.2-0.96c0.53,1.25,0.74,2.19,1.26,2.9c2.13,2.86,3.44,6.09,4.55,9.44c0.78,2.35,1.56,4.69,2.38,7.02
	c0.14,0.4,0.46,0.73,0.99,1.53C157.06,446.21,162.06,442.38,166.32,437.75z"/>
<path class="st0" d="M160.97,218c6.32,1.36,12.24,3.57,17.44,7.59c3.54,2.74,7.14,5.44,10.97,7.74c6.37,3.83,12,8.67,18.18,12.73
	c5.08,3.34,10.4,6.27,16.22,8.2c1.15,0.38,2.25,0.93,3.37,1.41c-0.06,0.16-0.12,0.33-0.18,0.49c-0.75-0.18-1.5-0.33-2.24-0.55
	c-4.06-1.22-8.13-2.38-12.16-3.7c-6.04-1.98-12.18-2.19-18.46-1.62c-7,0.64-14.02,0.98-21.03,1.47c-1.72,0.12-3.43,0.31-5.63,0.51
	c1.06,0.9,1.77,1.62,2.59,2.17c5.78,3.88,11.52,7.8,17.38,11.54c6.55,4.18,13.29,8.04,20.67,10.57c3.47,1.19,7.07,2.02,10.6,3.04
	c0.79,0.23,1.72,0.27,2.49,1.58c-1.05-0.1-1.71-0.09-2.33-0.23c-1.64-0.37-3.25-0.88-4.89-1.21c-1.4-0.29-2.84-0.39-4.25-0.61
	c-1.02-0.16-2.1-0.21-3.05-0.58c-4.46-1.78-9.11-1.65-13.73-1.37c-3.66,0.22-7.29,0.84-10.93,1.28c-3.16,0.38-6.33,0.73-9.49,1.15
	c-0.84,0.11-1.66,0.41-2.95,0.73c0.84,0.7,1.3,1.23,1.88,1.53c3.69,1.9,7.28,4.09,11.15,5.53c5.23,1.95,10.63,3.52,16.05,4.88
	c3.78,0.95,7.73,1.2,11.57,1.94c5.56,1.07,11.08,2.39,16.64,3.44c5.17,0.97,10.4,1.68,15.58,2.59c2.4,0.42,4.77,1.02,7.08,1.95
	c-1.77-0.33-3.54-0.71-5.33-0.99c-5.28-0.82-10.57-1.53-15.84-2.42c-4.64-0.78-9.24-1.84-13.89-2.59
	c-7.27-1.17-14.59-1.49-21.96-1.33c-7.33,0.15-13.67,2.93-19.68,6.7c-1.51,0.95-2.78,1.09-4.47,0.72c-3.03-0.67-6.14-0.98-9.19-1.54
	c-2.12-0.39-4.2-0.98-6.31-1.41c-3.68-0.74-7.35-1.62-11.08-2.07c-5.85-0.71-11.65-2.15-17.6-1.83c-3.17,0.17-6.34,0.54-9.49,0.97
	c-2.36,0.32-4.25,1.75-6.09,3.15c-0.88,0.67-0.98,1.64-0.68,2.61c0.2,0.67,0.57,1.29,1.03,2.27c-0.67-0.41-1.22-0.57-1.5-0.93
	c-3.92-5.05-7.81-10.12-11.69-15.19c-0.28-0.37-0.43-0.83-0.72-1.4c2.47-2.14,5-3.87,8.39-4.16c7.2-0.62,14.34-0.44,21.46,0.98
	c4.22,0.84,8.52,1.28,12.78,1.98c1.57,0.26,3.1,0.78,4.66,1.1c5.01,1.03,10.02,2.03,15.05,3c0.51,0.1,1.14,0.06,1.6-0.17
	c3.72-1.84,7.41-3.75,11.1-5.64c0.2-0.1,0.35-0.3,0.74-0.65c-2.01-1.68-4.04-3.15-6.49-3.85c-3.3-0.93-6.64-1.74-9.99-2.5
	c-6.45-1.46-12.9-2.92-19.38-4.23c-3.2-0.65-6.46-1.05-9.71-1.44c-4.43-0.53-8.88-0.99-13.33-1.39c-1.86-0.17-3.67,0.11-5.24,1.31
	c-0.29,0.22-0.71,0.27-1.08,0.38c-1.02,0.3-2.04,0.58-3.58,1.02c0.92,0.95,1.45,1.5,2.25,2.32c-0.02,0.15-0.1,0.76-0.21,1.62
	c-0.47-0.38-0.82-0.54-1.01-0.83c-2.21-3.43-4.39-6.87-6.58-10.31c-0.04-0.07-0.07-0.15-0.12-0.21c-2.76-3.1-4.4-6.98-6.95-10.22
	c-2.65-3.37-5.21-6.84-9.31-8.93c0.32-0.07,0.65-0.2,0.97-0.2c1.79,0.05,3.31-0.68,4.6-1.79c2.89-2.5,5.8-5.01,8.51-7.71
	c2.26-2.26,4.33-4.72,6.29-7.24c1.36-1.75,2.44-3.73,3.54-5.66c1.15-2.01,1.76-4.12-0.06-6.63c1.28,0.31,1.82,0.82,2.07,1.55
	c0.64,1.88,1.19,3.79,1.8,5.68c1.38,4.34,2.7,8.7,4.19,12.99c0.93,2.67,3.32,3.42,5.84,3.94c4.06,0.83,8.11,1.76,12.16,2.67
	c0.44,0.1,0.86,0.29,1.29,0.44c-0.02,0.16-0.05,0.33-0.07,0.49c-2.17-0.11-4.36-0.03-6.49-0.36c-2.99-0.45-5.92-1.33-8.91-1.77
	c-1.78-0.26-3.66-0.21-5.45,0.03c-1.92,0.26-2.81,2-3.76,3.45c-2.19,3.32-4.36,6.64-7.57,9.1c-0.22,0.17-0.31,0.53-0.58,1.02
	c0.62,0.18,1.09,0.42,1.58,0.44c8.97,0.46,17.78,1.97,26.52,3.95c5.85,1.32,11.69,2.67,17.53,4.03c3.42,0.8,6.81,1.75,10.25,2.42
	c1.61,0.31,3.35,0.32,4.99,0.11c5.47-0.67,10.92-1.54,16.39-2.25c1.88-0.24,3.79-0.26,5.93-0.39c-0.35-0.41-0.56-0.81-0.9-1.03
	c-6.47-4.28-12.89-8.63-19.46-12.76c-2.76-1.74-5.77-3.09-8.74-4.46c-2.34-1.08-4.87-1.53-7.47-1.47c-0.62,0.01-1.24-0.08-2.27-0.16
	c1.71-1.3,3.49-0.59,5.25-1.27c-1.93-1.09-3.59-2.15-5.34-3c-3.37-1.64-6.77-3.23-10.2-4.73c-3.31-1.44-6.72-2.51-10.4-2.6
	c-3.38-0.08-3.67,0.08-4.35,3.44c-0.97-1.77-2.06-3.28-2.67-4.97c-1.55-4.32-4.07-8.11-6.25-12.08c-0.64-1.17-1.85-2.13-2.2-3.35
	c-1.01-3.59-3-6.7-4.58-10c-1.06-2.21-2.31-4.31-3.21-6.71c0.35,0.24,0.72,0.46,1.06,0.71c1.95,1.4,2.79,1.59,4.76,0.1
	c4.32-3.27,8.67-6.55,12.67-10.19c2.29-2.09,4.46-4.57,4.85-8.02c0.17-0.01,0.35-0.03,0.52-0.04c0.51,0.94,1.03,1.87,1.51,2.81
	c1.93,3.77,3.76,7.58,5.78,11.29c1.3,2.39,1.51,5.01,2.07,7.57c0.1,0.46-0.04,0.99,0.11,1.43c1.29,3.62,0.58,7.27,0.26,10.92
	c-0.08,0.88,0.01,1.78,0.03,2.67c0.18,0.02,0.36,0.04,0.54,0.05c0.2-0.47,0.46-0.92,0.58-1.41c0.72-3.03,1.43-6.06,2.11-9.1
	c0.64-2.85,1.95-5.38,3.41-7.88c0.87-1.5,1.42-3.2,2.06-4.83c0.79-2,0.95-2.1,2.97-1.63c1.55,0.37,3.11,0.7,4.65,1.12
	c0.76,0.21,1.51,0.55,1.48,1.93c-0.76-0.12-1.41-0.21-2.05-0.34c-1.71-0.34-3.2-0.15-4.72,0.98c-1.09,0.81-1.97,1.57-2.74,2.73
	c-3.69,5.59-4.7,11.99-5.88,18.36c-0.27,1.49-0.68,2.96-1.02,4.44c-0.25,1.06,0.04,1.87,1.07,2.39c3.06,1.55,6.09,3.16,9.17,4.68
	c3.44,1.69,6.92,3.31,10.39,4.94c2.44,1.14,4.93,1.58,7.68,1.19c3.07-0.43,6.22-0.34,9.33-0.55c5.02-0.34,10.04-0.74,15.05-1.14
	c0.36-0.03,0.7-0.24,1.39-0.48c-0.71-0.66-1.17-1.19-1.72-1.57c-3.86-2.71-7.66-5.53-11.64-8.05c-2.21-1.4-4.73-2.3-7.12-3.41
	c-2.14-1-4.3-1.99-6.44-2.98L160.97,218z M113.43,216.25c0.02,0.19,0.04,0.37,0.07,0.56c6.39,0.29,11.75,3.41,17.24,6
	c0.23-0.24,0.39-0.34,0.43-0.47c0.07-0.22,0.11-0.47,0.07-0.7c-0.67-4.46-0.34-8.89,0.1-13.35c0.22-2.25-0.6-4.46-1.6-6.93
	c-2.8,2.89-5.19,5.62-7.85,8.05C119.2,211.84,116.25,213.98,113.43,216.25z"/>
<path class="st0" d="M360.67,505.41c-0.41,1.79-1.54,3.19-2.71,4.59c-2.38,2.84-5.59,4.47-8.79,6.13c-1.84,0.95-3.73,1.81-5.64,2.63
	c-2.43,1.04-4.87,0.77-7.2-0.31c-5.04-2.33-9.76-5.12-13.29-9.57c-0.84-1.06-1.9-1.95-2.76-3c-1.21-1.46-2.34-3-3.51-4.5
	c-0.42-0.54-0.85-1.08-1.57-1.99c-0.41,2.02-0.22,3.55-0.08,5.08c0.65,7.19,0.78,14.35-1.56,21.32c-0.25,0.75-0.59,1.5-1.03,2.15
	c-2.89,4.32-5.8,8.61-8.73,12.9c-0.55,0.81-1.04,1.75-2.32,2.02c0.11-0.4,0.12-0.64,0.24-0.82c2.87-4.52,1.64-6.44-2.47-10
	c-3.17-2.74-6.97-4.77-10.57-6.98c-1.48-0.91-3.13-1.6-4.78-2.2c-2.92-1.07-5.89-1.99-8.84-2.99c-1.8-0.61-3.52-0.27-5.05,0.71
	c-1.88,1.2-3.66,2.55-5.47,3.86c-0.57,0.41-1.08,0.9-1.97,1.15c0.16-0.45,0.23-0.96,0.49-1.33c0.32-0.44,0.76-0.83,1.22-1.13
	c4.01-2.62,7.04-6.26,10.06-9.87c1.84-2.2,3.35-4.67,5.1-6.94c0.56-0.72,1.35-1.33,2.15-1.79c3.99-2.34,8.01-4.62,12.1-6.96
	c-0.88-1.1-1.99-1.16-3.07-1.23c-4.94-0.36-9.88-0.65-14.82-1.07c-2.68-0.23-5.25,0.11-7.81,0.83c-1.13,0.32-2.33,0.38-3.63,0.16
	c0.34-0.18,0.66-0.47,1.02-0.53c2.05-0.35,3.19-1.58,3.75-3.54c1.43-5.08,2.85-10.16,4.39-15.2c2.81-9.19,4.86-18.55,6.55-28
	c0.73-4.08,1.46-8.16,2.39-12.2c0.33-1.42,1-2.89,1.92-4.02c3.92-4.8,6.88-10.2,9.92-15.55c3.7-6.51,5.76-13.46,5.61-21.04
	c-0.23-11.43-0.29-22.86-0.46-34.29c-0.07-4.63-0.27-9.27-0.4-13.9c-0.01-0.44,0.07-0.89,0.42-1.34c0.35,4.6,0.87,9.2,1.02,13.81
	c0.3,9.19,0.42,18.38,0.57,27.57c0.06,3.59,0.08,7.19,0.03,10.79c-0.09,5.93,2.05,11.17,5.41,15.83c2.12,2.94,4.96,5.37,7.47,8.04
	c2.74,2.91,5.42,5.87,8.24,8.7c3.32,3.34,6.78,6.54,10.14,9.85c1.93,1.9,3.85,3.82,5.63,5.87c2.46,2.83,4.79,5.79,7.17,8.7
	c1.42,1.74,2.66,3.58,3.27,5.8c0.23,0.83,0.7,1.6,1.09,2.38c1.51,3.01,1.74,6.05,0.58,9.26c-1.37,3.8-2.53,7.68-3.9,11.49
	c-0.48,1.33-1.3,2.54-2,3.78c-1.23,2.19-2.99,3.37-5.63,2.88c-0.44-0.08-1.11-0.09-1.37,0.17c-1.66,1.64-3.34,0.44-4.89-0.04
	c-1.32-0.41-1.34-1.99-1.38-3.1c-0.04-1.09,0.53-2.19,1.26-3.31c0.29,0.61,0.66,1.2,0.85,1.84c0.33,1.14,1.03,1.55,2.16,1.33
	c1.75-0.34,3.69-0.31,5.01-1.68c2.67-2.77,2.78-7.67,0.6-10.83c-3.5-5.07-7.07-10.09-11.45-14.46c-0.57-0.56-1.12-1.15-1.7-1.69
	c-0.96-0.9-2.11-1.14-3.34-0.73c-0.9,0.31-1.77,0.73-2.64,1.14c-2.33,1.1-3.43,2.96-3.54,5.52c-0.13,3.15,0.19,6.24,1.13,9.24
	c2.62,8.39,6.99,15.76,13.2,21.99c2.82,2.83,5.67,5.62,8.54,8.39c2.68,2.58,5.92,4.3,9.31,5.75c2.54,1.08,4.87,0.73,6.79-1.34
	C358.35,508.24,359.49,506.81,360.67,505.41z M305.31,421.17c-0.29-0.09-0.69-0.09-0.85-0.29c-1.16-1.41-2.27-2.87-3.41-4.31
	c-0.92-1.16-1.85-2.32-3-3.76c-0.45,1.01-0.73,1.61-0.92,2.03c1.58,1.8,3.04,3.36,4.39,5.01c1.35,1.66,3.47,2.83,3.82,5.84
	c-2.62-2.9-4.88-5.41-7.17-7.93c-0.79,0.5-1.3,0.82-2.02,1.27c1.92,1.95,3.48,3.43,4.91,5.02c1.86,2.07,3.62,4.23,5.42,6.35
	c1.39,1.64,2.54,3.62,4.24,4.84c2.46,1.76,4.23,4.05,6.17,6.25c1.9,2.15,3.73,4.37,5.71,6.44c5.12,5.37,10.63,10.39,15.14,16.33
	c0.1,0.14,0.4,0.13,0.79,0.24c-0.16-0.64-0.28-1.11-0.4-1.6c0.48-0.05,0.84-0.09,1.32-0.15c-0.23-0.69-0.4-1.19-0.65-1.95
	c0.98-0.31,1.88-0.6,2.89-0.92c-0.49-0.92-0.97-1.82-1.43-2.69c0.33-0.39,0.62-0.73,0.96-1.13c-0.54-0.79-0.99-1.54-1.52-2.22
	c-1.91-2.45-3.86-4.89-5.79-7.33c-0.19-0.25-0.62-0.57-0.56-0.71c0.55-1.36-0.57-1.84-1.27-2.51c-2.6-2.48-5.22-4.92-7.83-7.38
	c-3.82-3.61-7.67-7.2-11.44-10.87c-2.23-2.16-4.61-4.25-6.4-6.75c-1.79-2.51-4.97-4.03-5.49-7.49c-0.05-0.33-1-0.8-1.48-0.74
	c-0.85,0.11-1.06,0.93-0.89,1.68c0.1,0.44,0.42,0.85,0.71,1.22c0.65,0.81,1.42,1.53,2.02,2.37c1.37,1.93,2.66,3.92,3.98,5.88
	L305.31,421.17z M284.26,485.16c1.15,0.16,2.22,0.39,3.31,0.44c4.62,0.25,9.25,0.48,13.88,0.66c1.71,0.07,3.45,0.36,5.37-0.31
	c-0.31-0.95-0.59-1.76-0.82-2.58c-0.58-2.07-1.2-4.13-1.69-6.21c-0.77-3.32,0.11-5.92,3.26-7.68c1.96-1.09,2.71-2.78,2.38-5.24
	c-0.66-4.89-1.44-9.75-2.65-14.54c-0.86-3.39-1.77-6.75-3.22-9.96c-0.71-1.58-1.14-3.3-1.59-4.99c-1.06-3.89-2.48-7.59-5.32-10.58
	c-0.34-0.36-0.85-0.56-1.66-1.07c-0.65,10.79-2.85,20.97-4.4,31.25C289.56,464.65,286.63,474.74,284.26,485.16z M312.41,521.58
	c2.37-5.33,1.22-23.04-1.75-29.71c-1.68-0.37-3.08,0.48-4.51,1.15c-1.38,0.64-2.67,1.47-4.06,2.05c-5.86,2.44-11,6.14-16.36,9.44
	c-0.42,0.26-0.7,0.74-1.35,1.45c1.81,0.79,3.29,1.53,4.83,2.07c4.3,1.5,8.61,2.94,12.28,5.79c1.25,0.97,2.68,1.72,4.08,2.47
	c1.98,1.06,3.94,2.1,5.24,4.06C311.12,520.82,311.76,521.09,312.41,521.58z M324.71,457.13c0.08-0.17,0.16-0.34,0.24-0.5
	c-3.26-3.47-6.52-6.95-9.79-10.42c-3.29-3.49-6.5-7.06-10.07-10.36c3.26,9.36,5.91,18.78,6.56,28.96c0.79-0.44,1.28-0.65,1.69-0.97
	c1.01-0.78,1.94-1.68,2.97-2.42C318.89,459.57,321.24,457.29,324.71,457.13z M281.36,461.21c0.84-0.44,1.27-0.83,1.72-0.87
	c1.24-0.09,2.81-1.11,2.97-2.24c0.29-2.05,0.47-4.12,0.73-6.18c0.08-0.63,0.14-1.72,0.4-1.78c1.49-0.35,1.49-1.74,1.98-2.77
	c-0.17,3.33-0.34,6.57-0.5,9.82c0.18,0.02,0.36,0.03,0.54,0.05c1.04-7.02,2.09-14.03,3.14-21.14c-0.46,0-0.82,0-1.17,0
	c-0.06-0.65-0.11-1.25-0.21-2.3c-2,1.09-3.72,2.02-5.43,2.97c-1.28,0.71-1.94,1.83-2.22,3.24c-0.43,2.19-0.91,4.38-1.31,6.58
	c-0.14,0.77-0.08,1.58-0.09,2.37c-0.01,1.26,0.07,2.51,0,3.77C281.78,455.42,281.57,458.11,281.36,461.21z M296.4,421.25
	c1.03,1.05,1.44,2.71,3.26,3.31C298.76,422.57,298.26,422.03,296.4,421.25z M294.47,422.84c-0.15-0.05-0.3-0.09-0.45-0.14
	c-0.24,0.81-0.48,1.63-0.72,2.44c0.19,0.05,0.37,0.1,0.56,0.15C294.07,424.48,294.27,423.66,294.47,422.84z M302.77,428.37
	c0.09-0.08,0.19-0.16,0.28-0.24c-0.33-0.38-0.67-0.75-1-1.13c-0.09,0.08-0.18,0.15-0.26,0.23
	C302.11,427.61,302.44,427.99,302.77,428.37z M332.51,460.81c0.2-0.2,0.4-0.4,0.6-0.6c-0.26-0.28-0.52-0.56-0.77-0.85
	c-0.2,0.2-0.4,0.4-0.6,0.6C331.99,460.25,332.25,460.53,332.51,460.81z"/>
<path class="st0" d="M372.79,138.56c0.07-0.44,0.12-0.89,0.21-1.33c0.47-2.22,0.5-2.28-1.64-3.23c-1.33-0.59-2.64-1.46-4.2-1.19
	c-2.54,0.43-4.31,2.07-5.44,4.19c-0.76,1.42-1.23,3.17-1.26,4.79c-0.13,6.48,0.16,12.95,1.43,19.34c0.52,2.65,1.17,3.35,3.82,3.88
	c0.39,0.08,0.79,0.14,1.18,0.22c2.7,0.5,4.86-0.34,6.5-2.57c2.1-2.87,3.76-5.95,4.53-9.44c0.71-3.27,1.5-6.55,1.9-9.87
	c0.97-8.06-0.36-15.93-2.28-23.74c-0.96-3.9-2.06-7.72-4.21-11.17c-2.65-4.23-4.07-4.87-9.18-3.66c-1.21,0.29-2.37,0.81-3.62,1.1
	c1.06-1.06,2.43-1.57,3.83-2.02c4.25-1.37,8.53-0.95,12.82-0.29c1.66,0.26,3.31,0.56,4.96,0.83c2.63,0.43,4.58,1.91,5.92,4.1
	c2.89,4.74,5.28,9.68,5.68,15.36c0.08,1.11,0.28,2.22,0.5,3.32c0.47,2.36,0.92,4.7,0.48,7.13c-0.1,0.57,0.16,1.2,0.33,2.33
	c1.04-1.52,1.93-2.53,2.49-3.7c2.13-4.42,4.97-8.38,8.07-12.12c1.76-2.12,4.08-3.79,6.18-5.62c0.41-0.36,0.96-0.58,1.48-0.78
	c4.9-1.94,9.76-3.98,14.73-5.75c2.22-0.79,4.63-1.03,7.05-1.08c-1.19,0.34-2.39,0.62-3.55,1.04c-1.19,0.43-2.45,0.82-3.49,1.52
	c-1.42,0.96-2.13,2.22-2.06,4.22c0.09,2.47,0.61,4.67,1.62,6.87c1,2.18,1.93,4.39,2.73,6.65c1.09,3.05,2.68,5.79,4.65,8.34
	c1.03,1.32,2.15,2.61,2.96,4.07c1.8,3.24,4.63,4.43,8.11,4.38c1.91-0.03,3.82-0.3,5.72-0.46c0.37-0.03,0.74-0.05,1.56-0.1
	c-0.5,0.63-0.7,1.15-0.99,1.21c-1.08,0.23-2.2,0.39-3.31,0.43c-5.01,0.16-9.77,1.5-14.47,3.1c-2.27,0.77-4.51,1.63-6.79,2.34
	c-0.72,0.22-1.57,0.13-2.34,0.07c-4.3-0.34-8.6-0.72-12.91-1.07c-0.3-0.02-0.6,0.05-1.21,0.11c1.91,3.14,4.93,4.77,7.39,6.95
	c2.44,2.16,5.06,4.2,7.83,5.92c2.79,1.73,5.86,2.99,9.02,4.56c-0.45,0.23-0.54,0.32-0.58,0.3c-2.83-1.48-5.08-0.51-7.37,1.4
	c-10.92,9.12-22.12,17.92-31.99,28.25c-2.81,2.94-5.69,5.83-8.71,8.55c-1.32,1.19-2.96,2.23-4.64,2.78
	c-7.8,2.53-15.14,6.04-22.12,10.26c-3.93,2.38-7.15,5.6-9.73,9.46c-8.51,12.77-17.07,25.51-25.61,38.25
	c-0.44,0.66-0.94,1.29-1.66,1.79c0.26-0.51,0.47-1.06,0.78-1.54c2.35-3.52,4.81-6.98,7.07-10.56c4.08-6.48,8.01-13.07,12.09-19.55
	c1.7-2.7,3.58-5.29,5.47-7.86c4.3-5.86,6.02-12.49,5.62-19.64c-0.18-3.25-0.91-6.48-1.45-9.71c-0.92-5.44-1.88-10.86-2.87-16.29
	c-0.34-1.88-0.73-3.77-1.26-5.61c-1.44-5.03-2.09-10.16-2.37-15.36c-0.18-3.27-0.51-6.53-0.78-9.8c-0.02-0.24-0.17-0.51-0.1-0.7
	c1.2-3.45,0.8-7.39,2.91-10.51c1-1.48,2.53-2.6,3.9-3.81c1.36-1.2,2.72-2.42,4.22-3.43c3.28-2.21,6.22-4.98,10.26-5.96
	c1.34-0.33,2.25-0.07,3.3,0.59c1.07,0.68,1.92,2.04,3.53,1.38c1.06,1.16,2.51,2.16,3.05,3.53c0.43,1.09-0.22,2.62-1.48,3.49
	c-0.62,0.43-1.16,0.98-1.73,1.47C373.1,138.73,372.94,138.65,372.79,138.56z M367.62,210.66c7.3-8,14.08-15.94,21.43-23.32
	c7.41-7.46,15.38-14.36,23.31-21.69c-0.77-0.71-1.46-1.45-2.25-2.05c-3.74-2.86-7.48-5.71-11.28-8.51
	c-1.38-1.02-2.64-2.27-4.62-2.82c-0.39,1.31-0.69,2.53-1.11,3.71c-0.69,1.95-1.32,3.93-2.2,5.79c-1.19,2.53-3.19,3.92-6.13,3.65
	c-0.63-0.06-1.28-0.02-1.91,0.09c-1.5,0.25-2.63,0.94-3.29,2.44c-0.8,1.82-1.87,3.53-2.73,5.33c-0.65,1.36-1.12,2.8-1.71,4.19
	c-0.93,2.19-2.11,4.3-2.79,6.56c-0.94,3.11-1.52,6.34-2.27,9.51c-0.17,0.7-0.4,1.38-0.62,2.06c-0.69,2.12-1.56,4.19-2.05,6.35
	C366.79,204.67,366.76,207.45,367.62,210.66z M361.35,202.62c0.45,3.53,0.89,7.07,1.36,10.77c0.86-0.11,1.44-0.18,2.24-0.29
	c-0.11-0.94-0.17-1.72-0.31-2.49c-0.35-1.97-0.78-3.92-1.08-5.89c-0.27-1.73-0.77-3.54-0.52-5.21c0.4-2.64-0.06-5.21-0.79-7.55
	c-0.91-2.94-1.17-5.91-1.54-8.89c-0.32-2.53-0.43-5.09-0.87-7.6c-1.31-7.55-3.01-15.04-3.42-22.72c-0.01-0.17-0.25-0.34-0.51-0.68
	c-0.22,0.63-0.38,1.09-0.54,1.58c-0.41-0.25-0.73-0.45-1.19-0.74c-0.23,0.65-0.42,1.21-0.7,2c-0.91-0.29-1.75-0.56-2.79-0.9
	c-0.08,0.72-0.13,1.41-0.24,2.08c-0.06,0.37-0.19,1.02-0.37,1.04c-2,0.31-1.18,1.87-1.16,2.85c0.07,3.03,0.36,6.05,0.56,9.08
	c0.03,0.46,0.21,1.14-0.01,1.36c-1,0.95-0.42,1.94-0.19,2.89c0.58,2.41,1.39,4.77,1.8,7.2c0.81,4.88,1.68,9.72,2.95,14.51
	c2.13,8.03,2.51,13.39,2.57,22.57c0,0.48,0.51,1.2,0.96,1.39c0.82,0.34,1.38-0.29,1.52-1.06c0.11-0.61,0-1.27-0.03-1.9
	c-0.2-3.49-0.4-6.99-0.61-10.48c2.02,3.71,0.6,7.85,1.77,11.77c0.44-0.18,0.82-0.3,1.14-0.49c0.26-0.15,0.45-0.41,0.36-0.33
	C362.03,211.61,359.77,207.22,361.35,202.62z M423.95,148.36c-0.97-1.55-1.71-2.94-2.65-4.2c-2.77-3.72-5.53-7.42-6.98-11.92
	c-0.48-1.5-1.25-2.93-1.97-4.34c-0.98-1.93-2.02-3.8-1.97-6.08c0.01-0.64-0.38-1.29-0.6-1.96c-4.58,2.21-14.04,17.94-15.43,25.39
	C397.51,147.4,419.19,149.84,423.95,148.36z M366.93,194.38c0.21,0.01,0.42,0.03,0.63,0.04c2.32-9.56,5.53-18.77,10.77-27.68
	c-1.34,0.08-2.12,0.13-2.89,0.17c-4.18,0.22-8.39,1.06-12.85-1.08C364.08,175.6,365.51,184.99,366.93,194.38z M400.99,187.29
	c-0.1-0.14-0.21-0.28-0.31-0.43c-0.43,0.05-1.24,0.18-1.24,0.15c-0.23-1.12-0.79-0.95-1.51-0.47c-0.2,0.13-0.69,0.2-0.71,0.16
	c-0.49-1.16-1.06-0.35-1.4,0.02c-1.46,1.58-2.85,3.23-4.27,4.84c-0.42,0.47-1.06,1.37-1.3,1.28c-1.53-0.57-2.35,0.69-3.56,1.13
	c2.78-2.15,4.28-5.16,5.86-8.13c-4.84,5.22-9.69,10.43-14.6,15.71c0.32,0.21,0.62,0.42,0.9,0.61c-0.28,0.61-0.55,1.21-0.99,2.17
	c2.47,0.18,4.6,0.46,6.73,0.44c0.87-0.01,1.9-0.45,2.56-1.03c2.03-1.79,3.92-3.74,5.85-5.65c0.33-0.33,0.58-0.75,0.84-1.15
	c0.73-1.1,1.39-2.25,2.19-3.3C397.64,191.49,399.33,189.4,400.99,187.29z M366.13,211.7c-0.18-1.52,0.36-3.19-0.83-4.52
	C365.11,208.78,365.12,210.33,366.13,211.7z M370.97,210.08c-1.35-0.16-1.78,0.71-2.12,1.67
	C369.56,211.19,370.27,210.64,370.97,210.08z M364.86,203.6c0.1-0.03,0.2-0.06,0.31-0.09c-0.11-0.48-0.23-0.95-0.34-1.43
	c-0.13,0.04-0.25,0.07-0.38,0.11C364.58,202.65,364.72,203.12,364.86,203.6z M358.47,158c-0.11,0.01-0.21,0.02-0.32,0.02
	c0.06,0.39,0.11,0.79,0.17,1.18c0.08-0.01,0.16-0.03,0.24-0.04C358.53,158.78,358.5,158.39,358.47,158z"/>
<path class="st0" d="M251.07,246.44c-0.55-0.53-1.18-1.01-1.65-1.61c-3.84-4.91-7.73-9.79-11.45-14.79
	c-2.63-3.53-6.22-5.7-9.99-7.65c-3.67-1.9-7.65-2.54-11.75-3c-4.91-0.56-9.75-1.7-14.65-2.44c-4.58-0.69-9.19-1.14-13.78-1.77
	c-2.6-0.35-5.22-0.73-7.78-1.3c-3.74-0.82-7.45-1.82-11.17-2.75c-2.18-0.54-4.28-1.26-6.08-2.7c-0.61-0.49-1.38-0.79-2.1-1.13
	c-3.22-1.52-5.25-4-6.27-7.43c-0.97-3.26-2.24-6.44-3.2-9.7c-0.56-1.89-0.79-3.89-1.11-5.84c-0.41-2.53,0.38-4.5,2.79-5.68
	c0.34-0.17,0.87-0.48,0.88-0.74c0.07-1.77,1.51-2.08,2.69-2.62c1.81-0.83,3.77-0.17,4.63,1.58c0.4,0.82,0.62,1.74,0.94,2.7
	c-1.06,0.47-1.52-0.48-2.21-0.68c-0.51-0.14-1.09-0.44-1.53-0.3c-1.55,0.47-4.46,4.66-4.1,6.2c0.76,3.18,2.16,6.01,5.46,7.38
	c5.33,2.21,10.96,3.28,16.55,4.52c1.32,0.29,2.64,0.62,3.97,0.87c1.69,0.32,2.97-0.34,3.85-1.79c0.37-0.61,0.71-1.25,1.05-1.89
	c1.24-2.34,1.11-4.57-0.42-6.76c-2.03-2.92-4.5-5.37-7.45-7.37c-5-3.39-10.3-6.15-16.15-7.73c-7.52-2.04-15.18-3.21-22.99-2.94
	c-2.29,0.08-4.58,0.64-6.83,1.18c-2.43,0.58-3.82,2.28-4.09,4.76c-0.22,2.04-0.28,4.1-0.4,6.07c-0.07-0.18-0.32-0.53-0.37-0.91
	c-0.59-4.45-0.09-8.73,2.07-12.73c1.17-2.18,2.47-4.31,3.46-6.56c1.24-2.8,3.34-4.48,6.21-5.13c5.42-1.23,10.87-1.82,16.38-0.44
	c1.55,0.39,3.13,0.7,4.72,0.84c1.79,0.16,3.45,0.58,5.02,1.43c0.48,0.26,1.04,0.36,1.8,0.61c0.08-1.75-1.01-2.75-1.92-3.68
	c-3.51-3.54-6.38-7.58-8.96-11.79c-1.35-2.22-2.3-4.76-2.99-7.28c-0.5-1.8-0.25-3.79-0.36-5.7c-0.22-3.91-0.48-7.82-0.66-11.73
	c-0.04-0.88,0.21-1.78,0.39-3.16c0.35,0.68,0.47,0.82,0.48,0.96c0.42,5.39,2.31,6.36,7.99,6.7c4.2,0.25,8.46-0.25,12.66-0.68
	c2.28-0.23,4.52-0.96,6.76-1.55c1.78-0.47,3.48-1.24,5.28-1.58c3.02-0.57,4.74-2.54,5.87-5.1c0.8-1.81,1.28-3.77,1.87-5.68
	c0.23-0.75,0.36-1.54,0.61-2.61c1.11,1.43,0.48,2.65,0.3,3.82c-0.69,4.41-1.59,8.8-2.06,13.23c-0.3,2.83,0.08,5.73-0.01,8.6
	c-0.04,1.15-0.37,2.34-0.81,3.41c-1.53,3.69-3.18,7.33-4.76,11c-0.18,0.41-0.22,0.89-0.34,1.4c1.16,0.42,1.97-0.1,2.77-0.61
	c4.77-3.07,9.59-6.07,14.26-9.28c1.54-1.06,2.75-2.64,4.03-4.05c0.89-0.99,1.64-2.1,3.13-2.59c-2.4,3.95-2.44,3.97-0.78,8.41
	c2.78,7.41,5.49,14.85,8.47,22.17c1.99,4.88,4.36,9.61,6.62,14.37c2.11,4.47,4.39,8.87,6.41,13.39c0.66,1.48,1.08,3.24,1.02,4.85
	c-0.23,6.44,0.65,12.77,1.5,19.1c0.94,7.01,3.43,13.41,7.8,19.08c3.32,4.3,6.41,8.79,9.57,13.21c0.36,0.5,0.56,1.1,0.84,1.66
	L251.07,246.44z M181.68,163.87c0.89,1.39,2.53,1.85,3.72,2.86c1.51,1.29,3.12,2.5,4.48,3.94c1.72,1.83,2.19,4.03,1.13,6.43
	c-0.13,0.29-0.25,0.59-0.34,0.9c-0.57,1.97-0.46,3.71,1.27,5.21c1.5,1.31,2.73,2.91,4.16,4.31c1.02,1,2.18,1.85,3.25,2.8
	c1.78,1.58,3.41,3.36,5.34,4.73c2.65,1.89,5.52,3.48,8.28,5.21c0.54,0.34,1.04,0.75,1.55,1.13c1.78,1.34,3.47,2.82,5.35,3.99
	c2.43,1.51,5.08,2.52,8.42,2.59c-0.64-1.2-1.09-2.11-1.6-2.99c-1.57-2.68-3.23-5.31-4.73-8.03c-2.88-5.25-5.68-10.55-8.5-15.83
	c-0.9-1.69-1.87-3.36-2.63-5.12c-3.19-7.42-6.31-14.86-9.46-22.3c-0.33-0.78-0.71-1.55-1.05-2.29
	C198.58,151.94,182.97,162.42,181.68,163.87z M229.2,213.57c0.5-2.23,0.51-2.26-0.97-2.53c-1.25-0.24-2.53-0.38-3.79-0.6
	c-2.67-0.46-5.45-0.65-7.99-1.5c-3.19-1.07-6.32-2-9.72-1.81c-0.54,0.03-1.1-0.17-1.64-0.3c-3.19-0.73-6.35-1.6-9.56-2.17
	c-5.74-1.02-11.52-1.82-17.27-2.8c-2.59-0.44-5.15-1.11-7.72-1.66c-0.41-0.09-0.84-0.11-1.25-0.16c1.32,0.73,0.33,1.55,0.2,2.28
	c0.43,0.33,0.85,0.66,1.44,1.12c-0.6,0.8-1.12,1.51-1.74,2.34c0.58,0.29,1.13,0.55,1.68,0.84c0.35,0.18,0.98,0.4,0.97,0.59
	c-0.08,2.31,1.8,2,3.12,2.38c2.76,0.8,5.54,1.53,8.31,2.29c0.38,0.1,1.01,0.14,1.08,0.35c0.4,1.3,1.48,1.03,2.38,1.14
	c3.64,0.44,7.29,0.85,10.93,1.26c4.28,0.48,8.56,0.9,12.83,1.45c3.56,0.46,7.19,0.74,10.61,1.71c3.45,0.97,7.34,0.55,10.36,3.05
	c0.22,0.18,1.16-0.11,1.39-0.44c0.23-0.33,0.19-1.16-0.08-1.47c-0.37-0.43-1.04-0.68-1.62-0.85c-3.22-0.94-6.45-1.82-9.68-2.74
	c-0.45-0.13-0.88-0.37-1.31-0.57c0.06-0.16,0.12-0.31,0.18-0.47c3.88,1.01,7.75,2.02,11.83,3.09c-0.06-1.24,0.05-2.14-1.14-2.37
	c-3.12-0.59-6.24-1.16-9.35-1.78c-1.06-0.21-2.13-0.5-2.76-1.75C222.38,212.18,225.71,212.86,229.2,213.57z M155.93,138.91
	c0.51,4.92,12.63,19.26,19.03,22.71c3.04-2.21,12.29-21.76,12.5-26.52c-1.7-0.41-3.26,0.11-4.84,0.66
	c-4.46,1.53-8.94,2.91-13.74,2.8c-1.42-0.03-2.85,0.22-4.26,0.41c-2.21,0.3-4.4,0.77-6.62-0.03
	C157.39,138.72,156.64,138.91,155.93,138.91z M212.74,203.46c0.11-0.19,0.22-0.39,0.33-0.58c-0.31-0.21-0.62-0.43-0.93-0.64
	c-2.17-1.46-4.37-2.88-6.51-4.38c-4.43-3.12-8.52-6.65-12.32-10.52c-0.78-0.79-1.38-1.75-2.15-2.56c-0.25-0.27-0.74-0.31-1.24-0.49
	c-0.21,0.83-0.35,1.44-0.53,2.05c-1.2,4.07-1.65,8.46-5.29,12.01C193.96,200.09,203.35,201.78,212.74,203.46z M213.3,176.3
	c-0.14,0.09-0.28,0.18-0.42,0.27c3.34,6.22,6.67,12.44,10.01,18.66c0.02,0.05,0.15,0.04,0.23,0.06c0.25-0.18,0.5-0.36,0.9-0.65
	c0.3,0.51,0.61,1.05,0.92,1.58c0.21-0.06,0.42-0.11,0.63-0.17c0.8-1.7,1.61-3.39,2.38-5.1c0.63-1.39,0.58-2.77-0.1-4.16
	c-0.96-1.93-1.83-3.91-2.78-5.84c-0.35-0.71-0.69-1.57-1.29-1.99c-1.34-0.93-1.86-2.33-2.65-3.62c-1.35-2.21-2.87-4.31-4.54-6.78
	c-0.28,0.87-0.29,1.4-0.56,1.68c-1.34,1.37-1.74,2.72-0.96,4.15c0.96,1.75,2.04,3.43,3.02,5.17c0.3,0.53,0.74,1.53,0.57,1.69
	c-1.07,0.94-0.2,1.87,0.04,2.92C216.81,181.43,215.05,178.87,213.3,176.3z M228.55,209.8c-1.44-0.38-2.74-1.38-4.32-0.68
	C225.56,209.98,227.03,210.15,228.55,209.8z M228.91,206.62c0.16-0.04,0.31-0.08,0.47-0.13c-0.21-0.57-0.42-1.13-0.63-1.7
	c-0.17,0.06-0.33,0.13-0.5,0.19C228.47,205.53,228.69,206.08,228.91,206.62z M220.44,208.49c0.05-0.11,0.09-0.21,0.14-0.32
	c-0.44-0.1-0.89-0.21-1.33-0.31c-0.02,0.12-0.05,0.24-0.07,0.35C219.6,208.3,220.02,208.4,220.44,208.49z"/>
<path class="st0" d="M116.78,361.73c-0.01-3.86-1.33-6.91-2.08-10.04c-0.76-3.18-1.67-6.36-2.92-9.36
	c-1.23-2.96-2.97-5.71-4.62-8.78c0.54,0.12,0.75,0.11,0.79,0.19c1.21,2.52,3.23,3.24,5.91,3.01c5.02-0.44,10.05-0.68,15.07-1.07
	c5.26-0.41,10.52-0.81,15.76-1.41c4.36-0.51,8.69-1.34,13.04-1.98c3.7-0.55,7.47-0.82,11.11-1.65c2.15-0.49,4.06-0.23,5.99,0.4
	c7.88,2.56,15.98,3.95,24.21,4.51c4.31,0.29,8.61-0.45,12.73-1.91c7.61-2.69,15.22-5.38,22.83-8.06c0.28-0.1,0.57-0.16,0.98,0.09
	c-1.22,0.52-2.42,1.08-3.65,1.56c-7.01,2.7-14.05,5.3-21.02,8.09c-6.35,2.54-11.02,7.14-14.13,13.09
	c-3.81,7.29-7.27,14.77-10.8,22.21c-1.27,2.67-2.25,5.47-3.48,8.16c-1.15,2.54-2.35,5.06-3.7,7.5c-1.78,3.21-3.72,6.34-5.61,9.5
	c-1.15,1.93-2.45,3.72-4.32,5.07c-0.89,0.64-1.58,1.57-2.37,2.36c-1.94,1.95-4.32,3.03-7.04,3.18c-3.89,0.21-7.78,0.24-11.67,0.38
	c-2.26,0.08-4.44-0.22-6.61-0.87c-1.71-0.51-2.98-1.32-3.43-3.16c-0.28-1.12-0.82-1.95-1.8-2.82c-1.84-1.63-0.72-5.49,1.64-6.31
	c1.05-0.36,2.24-0.29,3.37-0.41c0.08,0.15,0.15,0.3,0.23,0.46c-0.46,0.47-0.86,1.02-1.39,1.38c-1.1,0.77-1.12,1.62-0.46,2.67
	c0.91,1.43,1.54,3.11,3.13,3.95c2.21,1.17,4.55,0.74,6.63-0.18c1.47-0.65,2.91-1.79,3.87-3.08c3.92-5.27,7.51-10.75,10.23-16.76
	c1.11-2.45,0.97-3.38-0.92-5.37c-0.28-0.29-0.57-0.56-0.85-0.85c-1.92-1.98-4.18-2.48-6.8-1.62c-3.38,1.12-6.42,2.79-9.19,5.04
	c-4.69,3.82-8.86,8.09-12.05,13.24c-3.38,5.45-6.13,11.19-8.21,17.29c-1.01,2.98-1.76,5.95-2.03,9.05
	c-0.34,4.08,0.71,5.94,4.51,7.44c1.9,0.75,3.97,1.07,6.39,1.7c-1.83-0.11-3.37,0.03-4.78-0.34c-2.95-0.76-5.77-1.94-8.06-4.05
	c-2.58-2.39-5.15-4.78-7.66-7.24c-1.68-1.65-2.41-3.79-2.3-6.11c0.27-5.64,1.23-11.11,4.14-16.09c0.69-1.17,1.31-2.39,1.86-3.63
	c0.92-2.05,1.92-4.03,3.54-5.65c0.42-0.42,0.62-1.06,1.1-1.93c-1.9,0.3-3.29,0.99-4.68,1.65c-6.53,3.11-13.22,5.63-20.57,5.83
	c-0.79,0.02-1.61-0.03-2.38-0.22c-5.12-1.26-10.23-2.56-15.33-3.88c-0.79-0.21-1.54-0.6-2.31-0.91c0.05-0.18,0.09-0.36,0.14-0.55
	c0.73,0.08,1.45,0.18,2.18,0.24c2.05,0.17,3.81-0.36,4.92-2.24c1.17-1.99,2.3-3.97,2.64-6.35c0.31-2.13,0.79-4.25,1.41-6.31
	c1.07-3.57,1.52-7.18,1.3-10.89c-0.1-1.67-0.08-3.36-0.01-5.04c0.11-3.01-0.84-5.5-3.37-7.26c-1.64-1.14-3.31-2.23-4.97-3.34
	c-0.61-0.41-1.22-0.82-1.82-1.23c0.1-0.19,0.21-0.37,0.31-0.56c0.99,0.43,2.08,0.71,2.94,1.32c3.76,2.66,7.96,4.43,12.27,5.9
	c2.71,0.93,5.5,1.66,8.26,2.43c1.18,0.33,2.14,0.9,3.07,1.73c3.03,2.72,6.18,5.32,9.3,7.95
	C115.51,361.03,115.87,361.18,116.78,361.73z M131.53,370.09c1.42-1.07,2.62-2.07,3.91-2.95c1.64-1.11,3.28-2.27,5.05-3.15
	c2.25-1.12,4.48-0.93,6.46,0.78c0.36,0.31,0.75,0.6,1.16,0.84c1.54,0.89,3.04,1.17,4.73,0.16c1.77-1.07,3.72-1.85,5.54-2.84
	c1.25-0.69,2.4-1.55,3.62-2.3c2.02-1.24,4.2-2.29,6.07-3.73c2.57-1.99,4.92-4.27,7.37-6.41c0.48-0.42,1-0.79,1.52-1.17
	c1.8-1.31,3.69-2.51,5.37-3.95c2.19-1.88,3.9-4.17,4.92-7.17c-7.02,1.42-13.84,2.86-20.68,4.16c-6.89,1.31-13.65,3.25-20.7,3.78
	c-6.97,0.52-13.91,1.54-20.83,2.33C124.96,350.19,129.8,366.28,131.53,370.09z M171.51,392.24c0.56-0.71,1.11-1.29,1.53-1.96
	c1.65-2.64,3.26-5.3,4.9-7.95c0.24-0.39,0.55-1.06,0.82-1.05c1.29,0.01,1.29-1.06,1.61-1.78c1.52-3.43,2.96-6.89,4.45-10.32
	c2.06-4.75,4.15-9.5,6.22-14.24c3.03-6.94,5.31-10.79,9.41-16.04c0.39-0.5,0.84-1.18,0.14-1.67c-0.44-0.31-1.24-0.48-1.7-0.29
	c-0.51,0.21-0.87,0.87-1.2,1.4c-1.77,2.76-3.5,5.53-5.27,8.29c-0.26,0.4-0.63,0.72-0.94,1.08c-0.13-0.11-0.26-0.22-0.39-0.32
	c2.09-3.43,4.18-6.85,6.41-10.51c-1.11,0-1.79,0-2.26,0c-1.18,2.14-2.2,4.11-3.32,6.02c-1.12,1.92-1.6,4.34-4.2,5.45
	c1.8-3.32,3.49-6.43,5.25-9.67c-0.8-0.41-1.33-0.68-1.98-1.02c-0.38,0.67-0.72,1.19-1,1.75c-1.45,2.94-2.85,5.9-4.33,8.83
	c-0.43,0.85-0.88,1.77-1.56,2.39c-1.78,1.64-2.7,3.87-3.36,5.96c-0.88,2.79-2.35,5.2-3.7,7.7c-1.43,2.67-2.95,5.3-4.32,8
	c-2.86,5.62-5.65,11.28-8.49,16.92c-0.52,1.03-1.13,2.01-1.7,3.02c0.1,0.09,0.21,0.18,0.31,0.27c0.44-0.31,0.89-0.61,1.37-0.94
	c0.11,0.52,0.18,0.87,0.31,1.47c0.69-0.55,1.16-0.92,1.82-1.45c0.59,0.82,1.1,1.53,1.74,2.42c0.7-0.75,1.39-1.48,2.13-2.27
	C170.55,391.84,170.9,391.99,171.51,392.24z M127.6,375.72c-1.62-3.93-17.98-18.53-22.06-19.67c-0.5,1.51-0.67,3.04-0.59,4.65
	c0.23,4.79,0.2,9.57-1.29,14.22c-0.46,1.43-0.67,2.95-0.88,4.44c-0.29,2.15-0.62,4.25-1.95,6.08c-0.37,0.5-0.39,1.25-0.59,1.93
	C105.49,388.02,121.18,381.26,127.6,375.72z M178.49,351.57c-0.17-0.12-0.33-0.24-0.5-0.35c-7.42,6.5-15.44,12.08-24.93,16.32
	c1.11,0.69,1.76,1.08,2.4,1.51c3.42,2.27,7.37,3.91,9.46,7.8c0.05,0.09,0.28,0.07,0.65,0.15
	C169.86,368.55,174.18,360.06,178.49,351.57z M175.47,337.36c-2.01-1.69-3.59-3.12-5.3-4.4c-0.59-0.44-1.53-0.77-2.22-0.64
	c-3.64,0.64-7.53,0.17-10.84,2.35c-0.51,0.34-1.21,0.38-1.82,0.55c-2.68,0.74-5.37,1.47-8.04,2.23c-0.26,0.07-0.47,0.33-0.82,0.6
	c0.56,0.34,1.12,0.47,1.31,0.82c0.95,1.77,1.85,2.44,3.46,2.12c1.95-0.39,3.87-0.94,5.82-1.39c0.61-0.14,1.71-0.4,1.8-0.22
	c0.74,1.53,2.2,0.61,3.31,1.2c-3.49,0.06-6.42,1.64-9.39,3.12c6.98-1.41,13.96-2.82,20.99-4.24c-0.17-0.4-0.31-0.73-0.45-1.07
	C173.83,338.12,174.39,337.86,175.47,337.36z M189.22,337.88c-0.71,1.43-2.19,2.5-2.22,4.86
	C188.45,341.05,189.27,339.67,189.22,337.88z M183.95,337.4c1.3-0.22,2.21-0.37,3.13-0.52c-0.02-0.16-0.04-0.32-0.06-0.47
	c-0.89,0.06-1.78,0.11-2.66,0.18C184.33,336.59,184.3,336.71,183.95,337.4z M164.03,386.3c0.1,0.06,0.2,0.12,0.3,0.18
	c0.22-0.41,0.43-0.82,0.65-1.24c-0.09-0.05-0.18-0.09-0.27-0.14C164.48,385.51,164.26,385.9,164.03,386.3z M184.54,346.63
	c0.16,0.04,0.33,0.09,0.49,0.13c0.12-0.4,0.24-0.8,0.36-1.19c-0.1-0.04-0.21-0.07-0.31-0.11
	C184.89,345.84,184.71,346.24,184.54,346.63z"/>
<path class="st0" d="M468.69,394.13c0.06-0.45,0.13-0.91,0.18-1.36c0.19-1.72-0.31-3.12-1.8-4.15c-2.36-1.64-4.66-3.39-7.02-5.03
	c-9.97-6.95-19.97-13.84-30.71-19.57c-3.59-1.91-7.14-3.9-10.6-6.03c-1.31-0.81-2.57-1.95-3.38-3.24
	c-3.25-5.19-7.33-9.69-11.36-14.23c-5.01-5.67-10.96-9.93-18.27-12.28c-6.84-2.2-13.59-4.71-20.37-7.09
	c-0.3-0.1-0.57-0.26-0.78-0.71c0.99,0.26,2,0.47,2.98,0.78c7.08,2.26,14.17,4.49,21.22,6.83c5.12,1.7,10.26,1.39,15.37,0.21
	c2.15-0.5,4.24-1.4,6.26-2.33c6.82-3.15,13.62-6.34,20.38-9.62c2.8-1.36,5.46-3,8.22-4.45c1.98-1.04,3.97-2.08,6.03-2.9
	c4.01-1.6,8.04-3.16,12.14-4.5c1.93-0.63,4.04-0.73,6.08-1.05c1.02-0.16,2.06-0.23,3.09-0.37c2.74-0.39,5.32,0.23,7.51,1.79
	c3.61,2.58,7.11,5.33,10.58,8.1c1.1,0.88,1.97,2.06,2.92,3.13c1.67,1.89,2.25,3.93,0.9,6.27c-0.22,0.39-0.48,1.11-0.3,1.32
	c1.14,1.36-0.08,2.26-0.6,3.2c-1.24,2.27-3.11,2.62-5.32,1.15c-0.61-0.41-1.22-0.82-1.74-1.72c0.74-0.07,1.49-0.06,2.21-0.22
	c0.5-0.11,1.28-0.37,1.36-0.7c0.4-1.68,0.76-3.39,0.83-5.1c0.03-0.77-0.45-1.83-1.05-2.29c-1.45-1.09-3.01-2.21-4.7-2.71
	c-1.53-0.45-3.39-0.42-4.94-0.01c-6.35,1.66-12.58,3.7-18.46,6.68c-2.28,1.16-2.81,2.04-2.62,4.54c0.04,0.48,0.1,0.95,0.15,1.43
	c0.26,2.64,1.59,4.43,4.09,5.4c3.09,1.2,6.28,1.85,9.59,1.92c11.97,0.27,22.8-3.49,33-9.44c3.18-1.86,6.4-3.65,8.96-6.36
	c0.38-0.41,0.79-0.79,1.17-1.21c2.75-3.01,3.01-5.04,1.08-8.67c-0.47-0.89-1.02-1.74-1.17-2.89c0.5,0.63,1.09,1.22,1.5,1.9
	c1.44,2.41,2.76,4.86,3.13,7.72c0.43,3.33,1,6.64,1.34,9.97c0.28,2.7-0.81,5.02-2.66,6.94c-3.84,4.01-8.02,7.57-13.37,9.47
	c-1.28,0.45-2.46,1.17-3.72,1.66c-1.7,0.66-3.44,1.21-5.16,1.81c-0.7,0.25-1.41,0.49-2.11,0.74c0,0.18,0.01,0.37,0.01,0.55
	c1.41,0.42,2.81,0.92,4.24,1.25c7.04,1.66,13.83,3.88,19.69,8.3c0.69,0.52,1.35,1.15,1.88,1.83c3.06,3.99,6.09,8.01,9.1,12.04
	c0.6,0.8,1.05,1.7,1.57,2.56c-0.13,0.12-0.26,0.23-0.39,0.35c-0.41-0.37-0.85-0.72-1.22-1.13c-1.75-1.89-3.68-2.43-6.25-1.52
	c-2.32,0.83-4.32,1.93-6.07,3.67c-1.18,1.17-2.55,2.19-3.94,3.12c-3.36,2.26-6.22,4.99-8.52,8.33c-0.95,1.38-2.03,2.68-3.19,3.89
	c-1.83,1.92-2.36,4.16-1.8,6.64c0.48,2.1,1.17,4.15,1.78,6.21c0.2,0.66,0.45,1.3,0.35,2.17c-0.32-0.26-0.75-0.45-0.92-0.78
	c-0.4-0.78-0.74-1.6-0.99-2.44c-1.49-5.05-4.21-9.46-7.2-13.72c-1.24-1.77-2.5-3.51-3.66-5.32c-0.41-0.64-0.68-1.43-0.83-2.19
	c-0.84-4.23-1.63-8.48-2.44-12.72c-0.06-0.3-0.2-0.59-0.34-1.01c-1.14,0.19-1.57,1.02-1.93,1.88c-2.28,5.45-4.64,10.87-6.77,16.39
	c-0.64,1.67-0.62,3.6-0.92,5.4c-0.21,1.22-0.46,2.43-0.69,3.64C469.1,394.21,468.89,394.17,468.69,394.13z M464.82,372.09
	c2.4-5.89,4.6-11.26,6.76-16.64c0.58-1.46,1.01-2.98,1.65-4.89c-1.85,0-3.34,0.08-4.82-0.02c-1.98-0.13-3.99-0.25-5.92-0.65
	c-2.54-0.52-4.28-2.04-4.77-4.74c-0.09-0.47-0.21-0.94-0.39-1.38c-0.64-1.67-1.68-2.8-3.61-3.06c-2.05-0.28-4.06-0.88-6.11-1.24
	c-1.41-0.25-2.84-0.3-4.26-0.48c-2.36-0.29-4.71-0.82-7.08-0.86c-3.26-0.06-6.52,0.26-9.78,0.38c-0.79,0.03-1.59-0.09-2.39-0.12
	c-2.31-0.08-4.63-0.34-6.92-0.16c-2.61,0.21-5.16,0.88-7.71,2.6C428.57,350.11,447.3,359.49,464.82,372.09z M412.21,330.48
	c-3.16,2.9-7.58,2.79-11.3,4.97c0.69,0.58,1.2,1.01,1.39,1.17c4.88-1.14,8.62-4.42,13.56-4.21c-3.42,1.43-6.83,2.86-10.4,4.36
	c0.39,0.81,0.65,1.35,1.02,2.11c1.92-0.92,3.71-1.78,5.5-2.62c3.03-1.42,5.95-3.02,9.35-3.61c1.75-0.3,3.57-1.14,4.98-2.23
	c2.41-1.85,5.21-2.68,7.92-3.8c2.43-1.01,4.92-1.9,7.3-3.02c6.86-3.25,13.55-6.85,20.76-9.32c0.16-0.05,0.24-0.33,0.45-0.63
	c-0.63-0.08-1.12-0.15-1.58-0.21c0.1-0.48,0.18-0.82,0.29-1.3c-0.73,0-1.27,0-2.02,0c0-0.98,0-1.87,0-2.94
	c-0.92,0.12-1.92,0.25-2.97,0.39c-0.57-1.81-1.87-1.05-2.91-0.7c-3.03,1.01-6.02,2.14-9.02,3.22c-0.37,0.13-0.91,0.48-1.08,0.34
	c-1.14-0.9-1.94,0-2.79,0.44c-3.18,1.66-6.34,3.35-9.51,5.03c-4.08,2.16-8.11,4.44-12.27,6.46c-4.52,2.19-9.14,4.16-13.74,6.17
	c-1.61,0.7-3.05,2.01-5.1,1.33c-0.57-0.19-1.45,0.23-1.39,1.24c0.05,0.9,0.66,1.26,1.42,1.32c0.45,0.03,0.94-0.15,1.38-0.31
	c0.9-0.33,1.76-0.76,2.67-1.06C406.79,332.2,409.51,331.35,412.21,330.48z M508.29,356.83c-3.28-3.91-22.95-9.16-29.03-7.71
	c0.07,9.71,2.19,19.1,4.7,28.47c2.06-0.6,2.63-1.13,4.08-3.09c2.75-3.73,5.61-7.35,9.56-9.96c1.32-0.87,2.52-1.95,3.64-3.07
	c1.66-1.66,3.51-2.98,5.69-3.85C507.4,357.44,507.82,357.11,508.29,356.83z M451.39,323.76c-9.1,4.11-17.82,8.05-26.53,11.98
	c0.04,0.18,0.07,0.36,0.11,0.54c3.28,0,6.58-0.12,9.85,0.03c3.26,0.16,6.52,0.5,9.75,0.94c3.25,0.44,6.47,1.09,9.71,1.66
	c0.05-0.35,0.14-0.52,0.09-0.65c-0.17-0.53-0.39-1.04-0.56-1.57C452.5,332.63,450.39,328.75,451.39,323.76z M439.76,358.52
	c0.08-0.18,0.16-0.35,0.24-0.53c-6.32-3.26-12.63-6.52-19.03-9.81c-0.06,0.5-0.11,0.86-0.16,1.21c-0.69-0.17-1.34-0.34-2.4-0.61
	c0.37,2.17,0.68,4.03,1,5.88c0.26,1.51,1.1,2.6,2.44,3.36c1.95,1.09,3.86,2.26,5.8,3.35c0.62,0.35,1.32,0.84,1.96,0.82
	c1.64-0.07,2.85,0.83,4.23,1.44c2.38,1.05,4.82,1.96,7.76,3.13c-0.46-0.9-0.65-1.27-0.84-1.63c0,0-0.36-2.37-0.35-2.25
	c0.22-0.27,0.4-0.49,0.8-0.98c-2.41-1.14-4.63-2.18-6.83-3.25c-0.64-0.31-1.78-0.73-1.76-1.05c0.08-1.53-1.13-2.02-2.37-2.99
	C433.71,356.03,436.73,357.27,439.76,358.52z M412.42,337.61c-2.29,0.15-3.49,0.75-4.32,2.26
	C409.31,338.83,411.23,339.19,412.42,337.61z M408.81,342.21c0.72,0.54,1.44,1.08,2.16,1.62
	C410.78,342.49,409.85,342.27,408.81,342.21z M456,318.08c0.09,0.11,0.18,0.22,0.27,0.33c0.36-0.2,0.72-0.4,1.08-0.6
	c-0.05-0.09-0.1-0.18-0.14-0.27C456.8,317.72,456.4,317.9,456,318.08z"/>
<path class="st0" d="M510.15,445.59c-4.36-3.62-8.76-7.2-13.08-10.87c-4.27-3.62-8.45-7.34-12.69-11c-1.94-1.67-4.39-1.79-6.77-1.99
	c-1.91-0.16-3.83-0.18-5.75-0.24c-1.47-0.05-2.28-0.81-2.76-2.2c-0.86-2.49-1.84-4.95-2.8-7.4c-0.31-0.78-0.73-1.51-1.24-2.54
	c-0.82,2.65-1.07,2.91-3.46,2.46c-1.46-0.28-2.94-0.82-4.24-1.55c-2.71-1.53-5.3-3.27-7.95-4.92c-0.64-0.4-1.31-0.75-1.97-1.13
	c-0.1,0.13-0.2,0.26-0.3,0.39c0.52,0.55,1.02,1.12,1.55,1.66c7.21,7.38,14.41,14.77,20.67,23.01c0.62,0.82,1.25,1.7,1.61,2.65
	c1.83,4.86,3.58,9.76,5.34,14.65c0.12,0.34,0.12,0.72,0.24,1.55c-2.42-2.11-4.45-1.05-6.47-0.08c-2.73,1.32-5.49,2.6-8.18,3.99
	c-5.05,2.6-8.2,6.85-9.73,12.19c-0.62,2.17-0.5,4.57-0.61,6.88c-0.08,1.51,0.79,2.53,2.07,3.25c2.14,1.19,4.42,1.75,7.25,1.54
	c-3.07,1.15-7.7,0.14-9.29-2.08c-0.7-0.97-1.1-2.35-1.13-3.55c-0.13-4.23,0.04-8.45,0.99-12.63c0.72-3.18,1.11-6.44,1.49-9.69
	c0.13-1.15-0.29-2.35-0.33-3.54c-0.05-1.74-0.27-3.56,0.12-5.22c0.39-1.68,2.04-2.55,3.56-3.31c3.71-1.85,7.43-3.67,11.13-5.52
	c0.19-0.1,0.31-0.34,0.56-0.62c-0.27-0.46-0.46-0.99-0.81-1.37c-4.43-4.82-8.83-9.67-13.35-14.41c-4.09-4.27-8.31-8.42-12.51-12.59
	c-0.96-0.95-2.08-1.75-3.11-2.63c-1.39-1.19-2.74-2.43-4.16-3.58c-2.36-1.92-4.74-3.8-7.13-5.67c-2.51-1.97-5.04-3.93-7.58-5.86
	c-0.49-0.37-1.09-0.83-1.64-0.84c-3.17-0.06-6.15-0.96-9.14-1.84c-0.35-0.1-0.75-0.06-1.29-0.09c0.25,2.21,1.91,3.2,3.12,4.47
	c1.21,1.26,2.52,2.42,3.66,3.95c-0.44-0.15-0.98-0.19-1.29-0.48c-2.04-1.9-4.22-3.69-5.99-5.82c-2.8-3.38-5.32-7.01-7.96-10.53
	c-3.63-4.83-7.86-9.01-12.94-12.37c-5.46-3.62-10.83-7.4-16.12-11.25c-6.6-4.8-13.37-9.33-20.34-13.56c-1.45-0.88-2.83-1.9-4-3.21
	c2.93,1.74,5.92,3.39,8.78,5.24c6.72,4.32,13.43,8.68,20.06,13.13c5.61,3.76,11.68,6.63,17.85,9.27c3.07,1.31,6.3,2.27,9.49,3.28
	c3.52,1.11,7.13,1.87,10.85,1.66c1.64-0.09,2.55,0.6,3.56,1.85c1.53,1.91,3.27,3.74,5.24,5.17c4.97,3.61,10.06,7.06,15.21,10.41
	c5.69,3.7,11.51,7.22,17.27,10.81c0.34,0.21,0.69,0.41,1.05,0.57c2.67,1.23,3.74,0.9,5.34-1.65c0.12-0.19,0.29-0.36,0.66-0.81
	c0.22,0.78,0.43,1.32,0.53,1.88c0.41,2.36,0.89,4.71,1.14,7.09c0.15,1.39,0.85,1.93,2.05,2.23c3.91,0.99,7.86,1.48,11.89,1.11
	c0.63-0.06,1.26-0.14,2.17-0.25c0.46,1.8,0.89,3.53,1.34,5.27c0.53-0.09,0.95-0.16,1.5-0.25c0.13,0.73,0.44,1.39,0.31,1.96
	c-0.75,3.52,1.06,6.24,2.9,8.81c1.99,2.77,4.34,5.29,6.54,7.91c0.26,0.31,0.7,0.54,0.8,0.88c0.61,2.17,2.43,3.3,3.96,4.65
	c3.72,3.28,7.5,6.48,11.24,9.75c1.18,1.03,2.28,2.14,3.42,3.22C510.41,445.37,510.28,445.48,510.15,445.59z M484.3,421.28
	c-0.24-1.27-0.66-2.02-1.6-2.58C482.73,420.26,482.73,420.25,484.3,421.28z"/>
<path class="st0" d="M265.27,489.07c-0.74,0.39-1.46,0.81-2.22,1.18c-1.87,0.91-3.71,1.88-5.64,2.66c-1.64,0.67-2.02,1.79-1.87,3.41
	c0.39,4.08,1.08,8.08,2.82,11.84c0.13,0.28,0.21,0.59,0.4,1.17c-1.6,1.09-3.21,2.18-5,3.4c0.51,0.39,0.88,0.67,1.28,0.97
	c-0.22,0.21-0.33,0.39-0.46,0.41c-4.54,0.57-7.33,3.69-9.88,7c-1.5,1.95-2.81,4.1-3.9,6.32c-2.32,4.71-4.45,9.51-6.66,14.28
	c-0.72,1.54-1.47,3.06-2.2,4.6c-0.16-0.07-0.31-0.14-0.47-0.22c0.8-1.97,1.59-3.94,2.41-5.9c0.99-2.36,2.06-4.68,2.97-7.07
	c0.47-1.24,0.66-2.58,1.03-3.86c0.2-0.68,0.51-1.34,0.79-1.99c0.76-1.76,1.61-3.48,2.3-5.26c1.01-2.58,0.56-5.2-0.08-7.78
	c-0.46-1.86-0.93-3.72-1.5-5.55c-0.45-1.47,0.08-2.4,1.25-3.27c2.12-1.57,4.17-3.24,6.22-4.9c0.72-0.58,1.37-1.27,1.86-2.27
	c-0.71,0.13-1.42,0.26-2.18,0.4c-1.43-2.16-1.42-4.45-0.9-6.73c0.73-3.19,1.62-6.34,2.43-9.52c0.21-0.82,0.4-1.65,0.22-2.63
	c-0.3,0.43-0.64,0.83-0.88,1.28c-4.53,8.74-9.27,17.35-14.72,25.56c-1.52,2.29-3.19,4.34-5.45,5.97c-3.5,2.53-6.86,5.24-10.29,7.86
	c-0.36,0.28-0.78,0.48-1.17,0.72c-0.12-0.17-0.22-0.26-0.2-0.3c0.89-2.29-0.18-3.85-1.76-5.41c-2.09-2.06-3.96-4.35-6.01-6.46
	c-3.21-3.3-6.93-5.61-11.73-5.77c-1.19-0.04-2.36-0.48-3.54-0.51c-1.16-0.03-2.33,0.22-3.9,0.39c0.53-0.5,0.76-0.92,1.09-1.02
	c2.06-0.59,4.12-1.27,6.24-1.63c2.52-0.42,5.09-0.51,7.63-0.81c3.02-0.35,5.92-1.02,8.61-2.63c1.32-0.79,3.08-1.39,4.55-1.21
	c1.42,0.17,2.94,1.2,4.03,2.25c3.09,2.98,5.98,6.17,8.96,9.27c0.1,0.1,0.29,0.12,0.57,0.23c0.33-0.36,0.78-0.7,1.05-1.16
	c2.28-3.76,4.67-7.45,6.75-11.31c3.94-7.31,7.71-14.72,11.54-22.09c0.11-0.21,0.23-0.42,0.31-0.65c2.31-5.95,4.62-11.89,6.92-17.84
	c0.95-2.46,1.92-4.9,2.83-7.38c0.21-0.57,0.42-1.28,0.26-1.81c-0.93-3.04-0.92-6.15-0.96-9.27c-0.01-0.37-0.14-0.74-0.26-1.3
	c-2.07,1-2.57,2.92-3.45,4.54c-0.86,1.59-1.6,3.25-2.4,4.88c-0.15-0.05-0.31-0.09-0.46-0.14c0.15-0.72,0.18-1.5,0.49-2.15
	c1.1-2.3,2.11-4.67,3.5-6.79c2.32-3.54,4.91-6.91,7.38-10.35c3.67-5.1,6.57-10.56,8.29-16.66c2.42-8.61,5.13-17.14,7.55-25.75
	c1.86-6.6,3.46-13.27,5.43-19.89c-0.08,0.71-0.08,1.45-0.24,2.14c-1.71,7.14-3.42,14.28-5.16,21.41c-2.22,9.08-4.7,18.13-5.34,27.5
	c-0.38,5.5-0.73,11.02,0.15,16.51c0.29,1.81,0.78,3.59,1.33,5.34c0.37,1.18,0.34,2.12-0.52,3.09c-1.67,1.89-2.68,4.16-3.39,6.55
	c-1.63,5.43-3.23,10.86-4.83,16.29c-1.53,5.2-3.1,10.38-4.52,15.61c-0.67,2.46-1.13,4.99-1.52,7.51c-0.4,2.61,0.47,3.69,3.05,4.11
	c0.31,0.05,0.63,0.05,0.95,0.07C265.12,488.73,265.2,488.9,265.27,489.07z M243.49,520.84c1.04-1.21,1.8-2.09,2.56-2.97
	C244.52,518.13,243.51,518.82,243.49,520.84z M246.24,503.33c-0.08-0.08-0.16-0.15-0.24-0.23c-0.4,0.37-0.8,0.73-1.2,1.1
	c0.11,0.11,0.22,0.23,0.32,0.34C245.49,504.14,245.87,503.74,246.24,503.33z"/>
<path class="st0" d="M360.78,247.9c1.42-1.27,2.81-2.57,4.27-3.79c8.5-7.15,15.9-15.29,21.73-24.76c1.41-2.29,2.41-4.86,3.36-7.4
	c0.52-1.4,1.14-2.29,2.66-2.7c2.81-0.76,5.25-2.25,7.53-4.08c4.48-3.6,9.11-7.01,13.55-10.64c5.25-4.3,10.37-8.76,15.54-13.16
	c0.36-0.31,0.72-0.64,1.04-0.99c1.97-2.17,1.96-3.3-0.03-5.57c-0.15-0.17-0.25-0.37-0.63-0.98c1.06,0.1,1.8,0.14,2.53,0.25
	c2.05,0.32,4.12,0.59,6.15,1.05c1.72,0.39,2.69-0.3,3.51-1.7c1.91-3.26,3.48-6.66,4.35-10.35c0.52-2.21,0.58-2.26,2.91-2.13
	c0.8,0.04,1.6,0.08,2.39,0.1c0.23,0.01,0.47-0.07,0.83-0.13c0.1-0.39,0.2-0.82,0.3-1.24c0.15-0.03,0.34-0.14,0.45-0.09
	c4.25,1.86,8.5,0.97,12.56-0.41c3.15-1.07,6.15-2.68,9.08-4.31c2.78-1.55,5.36-3.44,8.03-5.18c1-0.65,2-1.3,3.24-1.72
	c-0.24,0.29-0.43,0.65-0.73,0.87c-2.51,1.84-5.07,3.63-7.56,5.5c-0.88,0.66-1.58,1.54-2.42,2.27c-0.53,0.46-1.14,0.86-1.75,1.23
	c-1.16,0.7-2.31,1.43-3.53,2.03c-3.19,1.57-4.71,4.43-5.91,7.54c-0.63,1.64-1.24,3.29-1.8,4.96c-0.53,1.58-1.53,2.23-3.23,2.24
	c-2.64,0.01-5.27,0.24-7.9,0.42c-0.78,0.05-1.54,0.24-2.81,0.44c0.71,0.45,0.97,0.69,1.28,0.79c1.04,0.36,0.99,1.06,0.75,1.93
	c-0.57,2.01-1.8,3.57-3.31,4.9c-2.28,2-4.62,3.94-6.93,5.91c-0.59,0.51-1.18,1.02-1.58,1.95c0.51-0.19,1.04-0.35,1.53-0.58
	c7.3-3.45,14.59-6.93,21.9-10.34c1.81-0.84,3.72-1.47,5.57-2.23c2.18-0.89,4.42-1.27,6.78-1.32c5.43-0.12,10.86-0.38,16.3-0.58
	c0.63-0.02,1.26,0,1.9,0.32c-0.77,0.04-1.54,0.07-2.31,0.13c-2.25,0.2-3.33,1.17-3.29,3.41c0.05,2.62,0.18,5.27,0.64,7.85
	c0.52,2.89,1.38,5.73,2.26,8.55c0.35,1.11,1.01,2.19,1.74,3.1c1.15,1.43,2.4,2.8,3.76,4.03c0.87,0.78,1.95,1.46,3.06,1.82
	c3.91,1.24,7.88,2.07,11.96,0.67c0.27-0.09,0.6-0.01,1.3-0.01c-3.41,1.86-6.67,1.6-9.93,1.27c-4.38-0.45-8.28-2.11-12.03-4.4
	c-2.57-1.57-5.4-2.74-8.17-3.96c-0.99-0.44-2.17-0.42-3.24-0.72c-1.68-0.48-3.44-0.84-4.96-1.64c-1.5-0.79-1.83-2.56-2.09-4.12
	c-0.7-4.16-1.28-8.35-1.92-12.52c-0.03-0.22-0.2-0.42-0.35-0.71c-0.29-0.01-0.65-0.14-0.9-0.03c-5.47,2.44-10.93,4.89-16.37,7.39
	c-1.96,0.9-3.83,1.98-5.75,2.97c-4.47,2.32-8.94,4.64-13.4,6.97c-0.63,0.33-1.2,0.79-1.81,1.17c-1.82,1.14-3.67,2.23-5.46,3.41
	c-2.53,1.67-5.03,3.41-7.53,5.13c-2.5,1.72-5.01,3.42-7.49,5.17c-0.56,0.4-1.24,0.88-1.45,1.47c-1.03,3-2.8,5.56-4.56,8.13
	c-0.17,0.25-0.24,0.56-0.44,1.02c2.13,0.63,3.56-0.72,5.11-1.46c1.57-0.75,3.07-1.65,4.88-2.23c-0.3,0.37-0.51,0.88-0.9,1.1
	c-2.36,1.32-4.67,2.81-7.17,3.8c-4.98,1.96-10.1,3.58-15.13,5.41c-5.7,2.08-10.59,5.49-15.29,9.3c-4.53,3.67-9.31,7.02-13.99,10.5
	c-0.1,0.08-0.29,0.04-0.44,0.06C360.95,248.14,360.86,248.02,360.78,247.9z M462.48,161.29c1.25,0.61,2.41,0.85,3.57-0.89
	C464.54,160.78,463.51,161.03,462.48,161.29z"/>
<path class="st0" d="M164.8,308.73c-4.86-1.9-9.62-1.81-14.21-1.99c1.59-0.25,3.33-0.8,5.05-0.74c2.61,0.09,5.27,0.36,7.81,0.98
	c4.35,1.07,8.62,2.44,12.91,3.73c6.6,1.97,13.31,2.46,20.17,2.01c5.82-0.38,11.66-0.37,17.49-0.53c0.27-0.01,0.54,0.11,0.83,0.59
	c-1.06,0.17-2.12,0.43-3.19,0.49c-7.21,0.4-14.33,1.51-21.29,3.37c-4.85,1.29-9.61,3.01-14.28,4.86c-2.27,0.9-4.31,2.43-6.33,3.85
	c-1.1,0.78-2.02,0.99-3.31,0.52c-2.89-1.05-5.9-1.26-8.98-1.06c-5.65,0.35-11.32,0.43-16.97,0.82c-6.77,0.46-13.53,1.13-20.29,1.71
	c-0.24,0.02-0.48,0.04-0.71,0.08c-3.57,0.59-4.22,1.52-3.7,5.21c0.02,0.12-0.1,0.27-0.26,0.7c-0.85-0.82-1.63-1.56-2.41-2.31
	c-1.5-1.44-3-2.87-4.49-4.32c-0.78-0.76-1.63-0.83-2.61-0.4c-3.61,1.57-7.08,3.34-9.95,6.11c-0.51,0.49-1.12,0.88-1.86,1.45
	c-1.54-1.11-3.06-2.21-4.62-3.33c-0.34,0.54-0.56,0.89-0.82,1.3c-0.29-0.25-0.52-0.37-0.63-0.56c-2.2-3.9-5.95-5.68-9.94-6.83
	c-3.51-1.01-7.18-1.47-10.67-2.15c0.19-0.28,0.57-0.86,1.05-1.56c1.93,0.18,3.91,0.28,5.87,0.57c3.7,0.56,6.7-0.98,9.59-2.96
	c1.45-0.99,2.93-1.95,4.36-2.97c1.22-0.87,2.29-0.74,3.5,0.09c2.18,1.49,4.44,2.86,6.68,4.24c0.78,0.48,1.64,0.85,2.72,0.97
	c-0.35-0.64-0.7-1.29-1.06-1.96c1.71-2.05,3.96-2.81,6.38-3.07c3.18-0.35,6.37-0.56,9.55-0.84c0.84-0.07,1.67-0.16,2.51-0.23
	c0.01-0.16,0.02-0.32,0.02-0.48c-0.66-0.12-1.31-0.27-1.98-0.37c-10.45-1.53-20.87-3.18-31.05-6.06c-0.99-0.28-2.02-0.61-2.88-1.16
	c-4.45-2.83-8.85-5.74-13.28-8.61c-0.27-0.17-0.63-0.2-0.82-0.59c3.45-0.38,4.48-2.78,5.6-5.18c1.11-2.37,2.48-4.63,3.64-6.98
	c2.72-5.52,2.3-11.14,0.33-16.76c-0.26-0.73-0.78-1.37-1.48-2.57c0.81,0.51,1.26,0.69,1.58,1.01c2.12,2.14,3.38,4.8,4.67,7.48
	c1.45,3.01,3.11,5.93,4.79,8.82c0.5,0.86,1.44,1.46,2.07,2.26c1.14,1.43,2.52,2.78,3.2,4.41c0.64,1.53-0.13,3.25-0.9,4.77
	c-1.94,3.83-3.83,7.68-5.82,11.69c0.49,0.27,0.92,0.62,1.41,0.74c6.75,1.69,13.59,2.89,20.5,3.75c5.23,0.65,10.43,1.55,15.66,2.24
	c1.89,0.25,3.82,0.19,5.74,0.31c1.51,0.1,3.01,0.29,4.52,0.37c2.87,0.15,5.75,0.27,8.62,0.34c3.51,0.08,7.02,0.11,10.53,0.13
	c0.53,0,1.19-0.03,1.59-0.32c2.67-2.01,5.79-3.04,8.86-4.19C164.05,309.51,164.23,309.23,164.8,308.73z M81.84,324.63
	c0.07-0.16,0.14-0.33,0.2-0.49c-0.97-0.76-1.85-1.77-3.49-0.78C79.65,323.78,80.75,324.21,81.84,324.63z M94.73,319.12
	c-0.06,0.06-0.12,0.12-0.18,0.18c0.16,0.18,0.29,0.39,0.48,0.52c0.21,0.14,0.48,0.19,0.72,0.28c-0.07-0.38-0.22-0.55-0.4-0.67
	C95.16,319.3,94.94,319.22,94.73,319.12z"/>
<path class="st0" d="M210.29,89.28c0.71,0,1.25,0,2.04,0c0.2,0.96,0.51,1.94,0.61,2.94c0.47,4.98,2.53,8.99,6.8,11.8
	c1.33,0.87,2.47,2.03,3.73,3.01c1.11,0.86,1.26,1.85,0.86,3.17c-0.8,2.6-1.46,5.24-2.13,7.87c-0.23,0.91-0.34,1.85-0.18,2.95
	c0.51-0.59,1.03-1.18,1.6-1.83c1.76,0.74,3.14,1.83,3.89,3.47c1.59,3.48,3.04,7.03,4.54,10.55c0.39,0.91,0.77,1.83,1.15,2.75
	c0.15-0.05,0.3-0.11,0.45-0.16c-0.52-3.46-1.16-6.91-1.52-10.39c-0.81-7.79-1.5-15.59-2.18-23.4c-0.09-1.02-0.02-2.11,0.25-3.09
	c1.44-5.24,2.97-10.46,4.48-15.68c0.04-0.14,0.18-0.25,0.27-0.38c0.14,0.05,0.38,0.08,0.39,0.16c0.46,2.13,2.09,2.82,3.94,3.19
	c3.05,0.59,6.12,1.11,9.17,1.69c5.95,1.13,11.22-0.58,16.05-3.95c0.95-0.67,1.72-1.61,2.86-2.71c-0.2,0.74-0.24,1.25-0.46,1.65
	c-1.48,2.71-3.66,4.79-5.92,6.85c-2.35,2.14-4.56,4.45-6.69,6.81c-0.83,0.91-1.21,2.21-1.92,3.25c-0.99,1.44-1.83,3.25-3.22,4.07
	c-1.27,0.75-3.23,0.67-4.82,0.47c-4.25-0.53-8.47-1.33-12.88-2.05c-0.1,0.57-0.32,1.09-0.26,1.59c0.76,6.58,1.48,13.17,2.37,19.74
	c0.79,5.78,1.75,11.54,2.7,17.29c0.26,1.57,0.82,3.08,1.19,4.63c0.39,1.62,0.67,3.28,1.09,4.89c0.75,2.86,1.56,5.71,2.37,8.55
	c0.92,3.22,1.85,6.44,2.82,9.65c0.15,0.51,0.38,1.12,0.77,1.41c2.69,1.97,4.64,4.61,6.62,7.22c0.17,0.22,0.49,0.33,0.85,0.57
	c0.95-2.11,0.19-4.05-0.09-5.96c-0.28-1.89-0.75-3.76-0.85-5.79c0.41,0.82,1.03,1.6,1.21,2.47c0.53,2.57,1.11,5.16,1.26,7.77
	c0.26,4.55,0.24,9.11,0.29,13.67c0.07,6.98,1.72,13.57,4.25,20.05c2.17,5.56,3.86,11.3,5.45,17.17c-0.29-0.38-0.66-0.72-0.86-1.14
	c-0.55-1.15-1.09-2.32-1.53-3.52c-2.32-6.34-5.41-12.31-8.97-18c-2.62-4.19-5.64-8.14-8.72-12.02c-1.42-1.79-3.32-3.24-5.16-4.62
	c-1.34-1-1.9-1.97-1.94-3.73c-0.06-2.52-0.5-5.11-1.28-7.5c-1.85-5.68-3.9-11.31-6.05-16.89c-2.5-6.48-5.19-12.89-7.81-19.32
	c-0.15-0.37-0.34-0.72-0.54-1.07c-1.43-2.4-2.58-2.74-5.16-1.52c-0.22,0.1-0.42,0.22-1.05,0.56c0.25-0.85,0.32-1.42,0.57-1.9
	c1.09-2.13,2.18-4.26,3.36-6.34c0.73-1.29,0.61-2.32-0.37-3.45c-2.64-3.04-5.53-5.77-9.02-7.83c-0.47-0.28-0.92-0.6-1.56-1.02
	c0.68-1.88,1.34-3.71,2.17-6.01c-0.82,0.38-1.19,0.55-1.65,0.76c-0.57-0.93,0.17-1.65,0.64-2.04c2.57-2.15,2.71-5.19,2.99-8.09
	C211.94,98.14,211.6,93.75,210.29,89.28z M212.57,103.8c1.5-2.45,1.51-2.79,0.2-4.03C212.7,101.06,212.64,102.19,212.57,103.8z
	 M220.84,115.27c0.13,0.19,0.16,0.3,0.21,0.31c0.06,0.01,0.17-0.05,0.19-0.11c0.16-0.51,0.31-1.02,0.44-1.54
	c0.02-0.07-0.14-0.18-0.34-0.42C221.14,114.23,220.98,114.8,220.84,115.27z"/>
<path class="st0" d="M169.99,410.76c-0.21,0.34-0.37,0.72-0.62,1.02c-1.8,2.18-2.72,4.64-2.64,7.49c0.03,0.92,0.06,1.97-1.56,2.13
	c-0.24-4.48,1.62-7.84,4.87-10.58L169.99,410.76z"/>
<path class="st0" d="M155.3,216.55c-2.42-0.84-4.61-0.01-6.81,0.65c-0.9,0.27-1.88,0.63-2.32-0.82
	C149.28,214.67,152.32,215.44,155.3,216.55z"/>
<path class="st0" d="M467.45,291.07c3.62-4.65,3.62-4.65,4.97-4.24C471.09,289.38,470.61,289.8,467.45,291.07z"/>
<path class="st0" d="M360.69,462.44c5.16,1.66,5.16,1.66,5.45,3.2C363.67,465.51,362.75,465,360.69,462.44z"/>
<path class="st0" d="M205.26,479.18c0.21,0.49,0.42,0.99,0.71,1.68c-0.69,0.19-1.24,0.34-2.06,0.56c-0.17-1.07-0.3-1.95-0.49-3.13
	c0.66,0.15,1.04,0.24,1.43,0.34C204.99,478.8,205.13,478.99,205.26,479.18z"/>
<path class="st0" d="M268.46,110.43c-0.51-0.33-1.03-0.67-1.69-1.09c0.45-0.59,0.81-1.05,1.32-1.71c0.79,0.83,1.46,1.54,2.31,2.43
	c-0.6,0.19-0.88,0.28-1.15,0.37C268.99,110.43,268.73,110.43,268.46,110.43z"/>
<path class="st0" d="M342.19,117.41c2.14,0.45,4.28,0.9,6.41,1.36c-0.05,0.18-0.09,0.37-0.14,0.55c-2.12-0.51-4.31-0.74-6.24-1.96
	C342.23,117.36,342.19,117.41,342.19,117.41z"/>
<path class="st0" d="M170.04,410.82c0.2-1.56,1.14-2.63,2.31-3.55c0,0-0.06-0.05-0.06-0.05c-0.77,1.18-1.54,2.36-2.31,3.54
	C169.99,410.76,170.04,410.82,170.04,410.82z"/>
<path class="st0" d="M301.22,231.03c0,0.74,0,1.35,0,1.96c-0.02,0-0.04,0-0.05,0c0-0.56,0-1.12,0-1.69
	C301.17,231.25,301.19,231.2,301.22,231.03z"/>
<path class="st0" d="M326.43,345.82c-0.66-0.78-1.32-1.55-1.98-2.33l-0.05,0.05c0.66,0.78,1.33,1.55,1.99,2.33
	C326.38,345.86,326.43,345.82,326.43,345.82z"/>
<path class="st0" d="M161.02,217.96c-0.91-0.05-1.81-0.1-2.72-0.15c0.03-0.19,0.06-0.39,0.08-0.58c0.86,0.26,1.72,0.52,2.58,0.78
	C160.97,218,161.02,217.96,161.02,217.96z"/>
<path class="st0" d="M73.97,326.82c0.51,0,1.01,0,1.52,0c0,0.04,0,0.08,0,0.12c-0.51,0-1.01,0-1.52,0
	C73.97,326.9,73.97,326.86,73.97,326.82z"/>
<path class="st0" d="M251.02,246.49c0.48,0.44,0.97,0.87,1.45,1.31c-0.16,0.12-0.31,0.24-0.47,0.35c-0.31-0.57-0.63-1.14-0.94-1.71
	C251.07,246.44,251.02,246.49,251.02,246.49z"/>
<path class="st0" d="M253.41,249.15c0.22,0.3,0.44,0.6,0.66,0.9c-0.07,0.06-0.14,0.12-0.21,0.19c-0.27-0.28-0.54-0.57-0.81-0.85
	C253.16,249.31,253.28,249.23,253.41,249.15z"/>
<path class="st0" d="M263.71,356.13c-0.23,0.28-0.45,0.56-0.68,0.84c-0.08-0.06-0.16-0.12-0.23-0.18c0.23-0.3,0.46-0.61,0.7-0.91
	C263.56,355.96,263.63,356.05,263.71,356.13z"/>
<path class="st0" d="M460.06,293.6c0.29-0.14,0.58-0.29,0.87-0.43c0.05,0.09,0.09,0.19,0.14,0.28c-0.29,0.14-0.58,0.29-0.87,0.43
	C460.15,293.78,460.1,293.69,460.06,293.6z"/>
<path class="st0" d="M324.45,343.49c-0.44-0.47-0.88-0.94-1.31-1.41c0.14-0.09,0.27-0.19,0.41-0.28c0.29,0.58,0.57,1.16,0.85,1.74
	C324.39,343.54,324.45,343.49,324.45,343.49z"/>
<path class="st0" d="M261.4,358.94c-0.25,0.29-0.5,0.58-0.75,0.86c-0.07-0.06-0.14-0.12-0.21-0.18c0.25-0.29,0.5-0.58,0.74-0.87
	C261.26,358.81,261.33,358.87,261.4,358.94z"/>
<path class="st0" d="M464.48,291.98c0.33-0.04,0.66-0.08,0.99-0.12c-0.28,0.19-0.57,0.38-0.85,0.57
	C464.57,292.28,464.53,292.13,464.48,291.98z"/>
<path class="st0" d="M296.4,421.25c1.86,0.78,2.36,1.32,3.26,3.31C297.84,423.96,297.43,422.3,296.4,421.25z"/>
<path class="st0" d="M294.47,422.84c-0.2,0.82-0.41,1.64-0.61,2.46c-0.19-0.05-0.37-0.1-0.56-0.15c0.24-0.81,0.48-1.63,0.72-2.44
	C294.17,422.74,294.32,422.79,294.47,422.84z"/>
<path class="st0" d="M302.77,428.37c-0.33-0.38-0.66-0.76-0.99-1.14c0.09-0.08,0.18-0.15,0.26-0.23c0.33,0.38,0.67,0.75,1,1.13
	C302.96,428.21,302.87,428.29,302.77,428.37z"/>
<path class="st0" d="M332.51,460.81c-0.26-0.28-0.52-0.56-0.78-0.84c0.2-0.2,0.4-0.4,0.6-0.6c0.26,0.28,0.52,0.56,0.77,0.85
	C332.91,460.41,332.71,460.61,332.51,460.81z"/>
<path class="st0" d="M366.13,211.7c-1.01-1.38-1.02-2.93-0.83-4.52C366.49,208.51,365.95,210.18,366.13,211.7z"/>
<path class="st0" d="M370.97,210.08c-0.71,0.56-1.41,1.11-2.12,1.67C369.2,210.79,369.63,209.92,370.97,210.08z"/>
<path class="st0" d="M364.86,203.6c-0.14-0.47-0.28-0.94-0.42-1.41c0.13-0.04,0.25-0.07,0.38-0.11c0.11,0.48,0.23,0.95,0.34,1.43
	C365.07,203.54,364.96,203.57,364.86,203.6z"/>
<path class="st0" d="M358.47,158c0.03,0.39,0.06,0.78,0.09,1.17c-0.08,0.01-0.16,0.03-0.24,0.04c-0.06-0.39-0.11-0.79-0.17-1.18
	C358.26,158.02,358.37,158.01,358.47,158z"/>
<path class="st0" d="M228.55,209.8c-1.52,0.35-2.99,0.18-4.32-0.68C225.8,208.42,227.11,209.42,228.55,209.8z"/>
<path class="st0" d="M228.91,206.62c-0.22-0.55-0.44-1.09-0.66-1.64c0.17-0.06,0.33-0.13,0.5-0.19c0.21,0.57,0.42,1.13,0.63,1.7
	C229.22,206.54,229.06,206.58,228.91,206.62z"/>
<path class="st0" d="M220.44,208.49c-0.42-0.09-0.84-0.19-1.26-0.28c0.02-0.12,0.05-0.24,0.07-0.35c0.44,0.1,0.89,0.21,1.33,0.31
	C220.53,208.28,220.48,208.38,220.44,208.49z"/>
<path class="st0" d="M189.22,337.88c0.05,1.79-0.77,3.17-2.22,4.86C187.03,340.38,188.51,339.31,189.22,337.88z"/>
<path class="st0" d="M183.95,337.4c0.35-0.69,0.37-0.81,0.41-0.82c0.89-0.07,1.77-0.12,2.66-0.18c0.02,0.16,0.04,0.32,0.06,0.47
	C186.17,337.03,185.25,337.19,183.95,337.4z"/>
<path class="st0" d="M164.03,386.3c0.23-0.4,0.45-0.79,0.68-1.19c0.09,0.05,0.18,0.09,0.27,0.14c-0.22,0.41-0.43,0.82-0.65,1.24
	C164.23,386.42,164.13,386.36,164.03,386.3z"/>
<path class="st0" d="M184.54,346.63c0.18-0.39,0.36-0.78,0.54-1.17c0.1,0.04,0.21,0.07,0.31,0.11c-0.12,0.4-0.24,0.8-0.36,1.19
	C184.86,346.71,184.7,346.67,184.54,346.63z"/>
<path class="st0" d="M412.42,337.61c-1.18,1.57-3.1,1.22-4.32,2.26C408.92,338.37,410.12,337.77,412.42,337.61z"/>
<path class="st0" d="M408.81,342.21c1.04,0.06,1.97,0.29,2.16,1.62C410.25,343.29,409.53,342.75,408.81,342.21z"/>
<path class="st0" d="M456,318.08c0.4-0.18,0.81-0.36,1.21-0.54c0.05,0.09,0.1,0.18,0.14,0.27c-0.36,0.2-0.72,0.4-1.08,0.6
	C456.18,318.3,456.09,318.19,456,318.08z"/>
<path class="st0" d="M484.3,421.28c-1.57-1.03-1.57-1.03-1.6-2.58C483.64,419.26,484.06,420.01,484.3,421.28z"/>
<path class="st0" d="M243.49,520.84c0.02-2.02,1.03-2.71,2.56-2.97C245.3,518.75,244.54,519.63,243.49,520.84z"/>
<path class="st0" d="M246.24,503.33c-0.37,0.4-0.74,0.81-1.11,1.21c-0.11-0.11-0.22-0.23-0.32-0.34c0.4-0.37,0.8-0.73,1.2-1.1
	C246.08,503.18,246.16,503.26,246.24,503.33z"/>
<path class="st0" d="M462.48,161.29c1.03-0.25,2.06-0.51,3.57-0.89C464.89,162.14,463.73,161.9,462.48,161.29z"/>
<path class="st0" d="M81.84,324.63c-1.09-0.42-2.19-0.85-3.28-1.27c1.63-0.99,2.52,0.01,3.49,0.78
	C81.98,324.3,81.91,324.47,81.84,324.63z"/>
<path class="st0" d="M94.73,319.12c0.21,0.1,0.43,0.18,0.62,0.3c0.18,0.12,0.34,0.29,0.4,0.67c-0.24-0.09-0.51-0.14-0.72-0.28
	c-0.19-0.12-0.32-0.34-0.48-0.52C94.61,319.24,94.67,319.18,94.73,319.12z"/>
<path class="st0" d="M212.57,103.8c0.08-1.61,0.13-2.74,0.2-4.03C214.07,101.01,214.07,101.35,212.57,103.8z"/>
<path class="st0" d="M220.84,115.27c0.14-0.47,0.3-1.05,0.51-1.76c0.2,0.24,0.35,0.35,0.34,0.42c-0.13,0.52-0.28,1.03-0.44,1.54
	c-0.02,0.05-0.13,0.12-0.19,0.11C221,115.57,220.97,115.46,220.84,115.27z"/>
<path class="st0" d="M305.26,421.21c0.39,0.34,0.79,0.67,1.18,1.01c-0.14,0.11-0.28,0.22-0.42,0.33c-0.24-0.46-0.47-0.92-0.71-1.38
	C305.31,421.17,305.26,421.21,305.26,421.21z"/>
</svg>
