<?xml version="1.0" standalone="no"?>
<!DOCTYPE svg PUBLIC "-//W3C//DTD SVG 20010904//EN"
 "http://www.w3.org/TR/2001/REC-SVG-20010904/DTD/svg10.dtd">
<svg version="1.0" xmlns="http://www.w3.org/2000/svg"
 width="1200.000000pt" height="1200.000000pt" viewBox="0 0 1200.000000 1200.000000"
 preserveAspectRatio="xMidYMid meet">
<metadata>
Created by potrace 1.16, written by Peter Selinger 2001-2019
</metadata>
<g transform="translate(0.000000,1200.000000) scale(0.100000,-0.100000)"
fill="#000000" stroke="none">
<path d="M0 6000 l0 -6000 6000 0 6000 0 0 6000 0 6000 -6000 0 -6000 0 0
-6000z m5833 5049 c10 -182 16 -231 30 -252 23 -36 228 -155 371 -216 165 -71
261 -84 324 -43 32 21 29 -3 -5 -35 -16 -14 -101 -75 -190 -136 -90 -60 -168
-116 -174 -123 -23 -27 -26 -85 -13 -225 16 -177 17 -220 4 -197 -18 30 -39
132 -49 242 -19 197 -35 221 -167 261 -49 15 -119 43 -157 62 -38 19 -71 33
-73 31 -2 -3 10 -69 26 -149 38 -186 54 -335 80 -720 12 -173 27 -341 35 -374
7 -33 53 -148 102 -255 49 -107 95 -208 102 -225 10 -24 14 -27 21 -14 14 24
137 456 154 539 24 119 29 199 16 268 -6 35 -14 70 -17 78 -3 8 -1 14 5 14 5
0 18 -21 29 -47 l20 -48 12 40 c22 77 53 321 53 415 0 67 -5 111 -18 150 -19
54 -20 55 -57 55 -20 0 -37 2 -37 3 0 2 71 75 158 162 86 87 166 168 177 179
73 76 363 351 369 351 3 0 -11 -24 -34 -53 -45 -61 -51 -96 -18 -127 12 -11
87 -64 168 -118 148 -100 246 -148 282 -136 11 3 42 29 69 58 27 28 49 46 49
40 1 -49 -319 -373 -417 -422 -33 -17 -63 -36 -65 -42 -2 -6 -63 -26 -136 -44
-73 -18 -135 -36 -140 -40 -4 -4 65 -5 153 -1 126 6 179 4 250 -9 50 -9 107
-16 128 -16 31 0 39 -4 47 -26 13 -33 13 -164 0 -164 -13 0 -30 34 -30 59 0
12 -15 37 -32 57 -63 67 -205 85 -458 59 -91 -9 -168 -20 -172 -23 -7 -7 -45
-223 -73 -421 -19 -131 -17 -152 32 -281 137 -363 181 -466 193 -454 5 5 35
88 65 183 60 192 75 289 75 503 0 114 -1 118 -35 184 -22 42 -32 71 -26 77 14
14 32 -2 53 -50 16 -37 21 -75 25 -231 4 -120 1 -213 -6 -261 -11 -71 -87
-321 -193 -636 -106 -317 -148 -492 -148 -623 0 -66 -9 -104 -21 -96 -5 3 -9
94 -9 202 0 108 -5 228 -10 266 -13 86 -50 198 -100 301 -21 44 -67 159 -100
256 -70 200 -76 211 -90 189 -23 -36 -161 -516 -196 -683 -21 -102 -26 -159
-31 -344 -3 -123 -10 -223 -14 -223 -5 0 -9 8 -10 18 0 9 -4 53 -10 97 -5 44
-13 134 -18 200 -11 149 -35 224 -147 478 -98 220 -123 266 -135 245 -13 -23
-37 -138 -50 -242 -13 -107 -7 -450 10 -542 5 -29 15 -105 21 -170 6 -66 26
-207 45 -314 41 -231 115 -712 114 -737 -3 -63 -64 272 -143 782 -65 414 -71
441 -133 629 -64 192 -91 234 -230 371 l-81 80 -21 175 c-11 96 -25 225 -31
285 -41 416 -118 684 -227 790 -46 45 -77 53 -114 31 -45 -27 -37 -6 43 105
18 25 68 96 112 157 89 127 84 125 166 43 34 -35 53 -67 78 -131 70 -185 88
-285 141 -767 l38 -352 98 -103 c54 -57 103 -103 109 -103 6 0 19 23 29 50 19
56 19 97 -9 475 -17 235 -33 358 -75 588 -35 190 -40 206 -82 249 -17 18 -32
40 -33 48 -3 22 -24 45 -39 45 -18 0 -28 -32 -13 -42 8 -5 1 -8 -20 -8 -42 0
-41 3 84 150 126 150 303 386 321 428 10 24 16 106 20 290 4 141 8 250 10 242
2 -8 9 -117 16 -241z m-449 -291 c-9 -18 -73 -89 -141 -158 -78 -78 -139 -150
-163 -190 -68 -116 -83 -120 -295 -86 -82 13 -154 20 -158 16 -9 -8 40 -418
79 -663 26 -163 94 -448 157 -654 34 -111 34 -112 118 -202 75 -80 85 -88 92
-69 4 11 1 56 -8 100 -27 146 -10 160 20 17 10 -45 19 -171 25 -319 10 -275
18 -323 93 -525 41 -112 107 -322 107 -341 0 -20 -21 17 -48 86 -108 272 -316
598 -452 708 -66 53 -76 72 -84 157 -4 33 -31 132 -60 220 -62 182 -248 654
-278 703 -23 37 -52 48 -92 32 -16 -6 -31 -8 -33 -6 -3 3 16 44 41 92 25 47
46 97 46 111 0 31 -75 112 -160 171 -36 25 -68 48 -73 52 -4 3 2 33 13 65 24
70 24 66 5 59 -23 -9 -18 11 15 58 34 49 50 119 50 223 0 65 -11 151 -26 198
-4 13 0 17 19 17 23 0 26 -6 37 -67 21 -128 53 -175 190 -285 65 -53 66 -57
26 -206 -15 -57 -25 -106 -22 -109 3 -4 14 1 24 10 17 15 20 15 53 -13 28 -23
49 -59 99 -179 35 -83 66 -149 68 -147 2 2 -3 51 -12 108 -16 107 -25 195 -51
482 l-16 169 52 181 c28 99 55 185 59 190 4 4 11 -1 15 -13 10 -31 49 -47 171
-69 165 -30 180 -32 247 -21 73 12 193 68 232 109 35 37 42 32 19 -12z m2379
-434 c150 -21 189 -41 238 -118 84 -132 121 -267 137 -495 8 -108 5 -109 79
20 69 120 153 229 229 295 57 50 84 64 237 124 152 60 291 100 303 87 2 -2
-15 -9 -38 -16 -133 -40 -162 -95 -119 -228 21 -62 89 -232 111 -273 21 -41
146 -213 172 -236 39 -36 90 -47 189 -39 62 5 89 4 89 -4 0 -13 -20 -17 -135
-31 -94 -10 -211 -41 -328 -85 -76 -28 -119 -30 -299 -14 -65 6 -122 8 -125 5
-9 -9 22 -40 112 -115 131 -110 186 -148 296 -206 99 -52 102 -54 59 -49 -25
3 -57 1 -71 -4 -25 -10 -328 -258 -489 -401 -47 -41 -170 -159 -275 -262 -104
-102 -203 -193 -220 -202 -16 -8 -75 -32 -130 -52 -114 -43 -306 -136 -399
-195 -34 -22 -87 -66 -117 -97 -30 -32 -185 -251 -343 -488 -158 -236 -297
-439 -308 -450 -27 -26 -18 -10 66 115 38 58 137 213 219 345 82 132 175 276
206 320 169 233 183 341 102 800 -28 154 -61 326 -75 383 -23 94 -35 188 -54
427 -8 97 12 234 44 300 27 58 243 232 347 280 67 32 104 31 147 0 19 -14 40
-23 47 -21 16 6 83 -69 83 -93 0 -10 -17 -35 -37 -55 l-38 -37 -3 46 c-3 41
-6 47 -42 65 -94 48 -184 3 -217 -109 -24 -85 -7 -388 28 -499 14 -41 56 -62
128 -62 42 0 56 5 86 31 57 50 111 173 141 324 23 116 25 146 21 275 -6 157
-34 313 -82 456 -30 89 -54 134 -98 181 -39 42 -79 49 -157 29 -34 -9 -65 -16
-68 -16 -18 1 59 35 103 46 69 17 118 17 248 -2z m-3969 -209 c-14 -77 -28
-207 -32 -290 l-8 -150 -57 -130 c-31 -72 -57 -136 -57 -143 0 -25 32 -9 191
94 112 72 189 130 242 182 75 75 91 83 62 32 -25 -44 -17 -83 64 -296 115
-307 156 -402 292 -684 l123 -255 8 -135 c10 -168 35 -374 55 -460 22 -93 90
-232 159 -325 119 -159 206 -286 202 -291 -3 -3 -63 70 -134 162 -169 220
-194 246 -279 300 -97 60 -161 81 -318 105 -73 11 -168 26 -212 35 -44 8 -181
28 -305 44 -211 28 -500 89 -575 122 -69 30 -176 101 -200 132 -32 42 -113
277 -131 379 -12 67 -12 83 1 113 7 18 25 39 39 45 14 7 28 21 32 31 7 24 61
58 91 58 29 0 71 -38 79 -72 7 -31 -4 -35 -37 -17 -11 5 -29 7 -40 4 -31 -10
-79 -83 -79 -119 1 -44 32 -107 69 -139 39 -32 170 -74 369 -118 136 -30 144
-30 168 -14 14 9 37 41 50 70 38 81 24 118 -80 220 -187 185 -463 288 -803
302 -150 6 -242 -3 -299 -29 -41 -19 -57 -56 -62 -143 -5 -87 -20 -80 -21 10
-1 77 23 154 85 273 62 116 85 146 126 168 33 17 185 44 252 44 84 0 307 -44
379 -75 33 -14 18 24 -32 79 -126 139 -220 289 -245 391 -18 77 -33 445 -17
445 6 0 11 -9 11 -20 0 -11 7 -37 16 -59 26 -65 67 -75 267 -68 171 6 189 9
361 59 144 42 164 61 207 199 20 61 35 96 40 87 4 -7 -4 -76 -17 -153z m6306
-750 c0 -2 -35 -30 -77 -62 -43 -31 -96 -74 -119 -94 -22 -19 -72 -55 -112
-78 -96 -57 -123 -91 -167 -208 -21 -54 -44 -104 -51 -112 -9 -9 -53 -16 -141
-22 -70 -4 -130 -8 -133 -9 -2 0 6 -7 18 -16 48 -33 12 -95 -123 -213 -59 -51
-104 -95 -102 -97 2 -3 123 51 268 119 380 179 375 177 604 188 105 4 210 8
235 7 l45 0 -44 -9 c-67 -13 -74 -24 -72 -118 2 -95 12 -156 46 -268 23 -75
32 -90 93 -152 57 -59 76 -72 127 -87 64 -19 168 -24 225 -11 l35 8 -30 -18
c-24 -14 -50 -17 -125 -17 -117 2 -166 18 -352 112 -79 41 -160 75 -195 82
-75 15 -139 43 -151 67 -6 10 -20 81 -31 158 -28 182 -29 185 -45 185 -21 0
-365 -159 -551 -255 -207 -107 -321 -175 -530 -318 -192 -132 -193 -132 -211
-177 -8 -19 -33 -62 -54 -96 -22 -33 -40 -63 -40 -67 0 -17 47 -4 121 34 86
43 117 47 52 6 -74 -47 -139 -75 -328 -142 -219 -77 -280 -109 -425 -219 -263
-200 -342 -257 -348 -251 -4 3 20 29 53 58 268 230 465 469 550 667 l41 95 60
24 c71 28 132 71 339 236 251 200 460 382 473 411 11 22 10 31 -8 61 -11 20
-18 38 -15 41 3 4 50 -1 103 -10 84 -15 100 -15 119 -3 27 18 87 137 113 226
l21 69 59 0 c49 0 60 3 60 16 0 12 5 15 23 9 12 -4 52 -9 89 -12 118 -9 270
52 492 196 110 71 116 75 116 66z m-7709 -920 c98 -196 115 -270 111 -470 -3
-154 6 -151 44 15 19 84 44 153 92 258 75 161 67 154 177 124 38 -11 61 -23
63 -33 2 -14 -7 -16 -56 -15 -50 1 -64 -3 -95 -27 -47 -35 -90 -110 -121 -207
-30 -94 -80 -346 -72 -365 6 -16 401 -213 480 -239 45 -15 67 -16 290 -1 296
20 366 27 369 40 6 26 -265 204 -404 266 -100 45 -164 80 -119 65 8 -2 47 -14
85 -27 101 -32 167 -67 285 -154 58 -43 156 -111 219 -152 63 -41 158 -107
210 -146 189 -140 317 -215 474 -277 59 -24 107 -46 107 -51 0 -9 -26 -2 -240
63 -148 45 -177 51 -285 55 -67 3 -219 -2 -345 -11 -124 -9 -264 -19 -312 -22
-49 -4 -88 -9 -88 -13 2 -20 500 -344 640 -416 134 -68 183 -87 349 -136 124
-36 162 -52 150 -62 -2 -3 -33 2 -69 10 -36 8 -103 20 -150 28 -47 8 -110 21
-140 30 -83 23 -239 18 -494 -14 -125 -17 -230 -32 -233 -35 -11 -10 11 -27
94 -72 171 -93 412 -170 668 -214 94 -16 223 -40 288 -54 65 -14 214 -42 330
-61 178 -30 323 -62 295 -64 -15 -2 -414 62 -589 94 -220 41 -359 55 -526 55
-193 0 -315 -32 -465 -120 -44 -27 -78 -40 -102 -40 -47 0 -187 24 -359 61
-159 34 -420 76 -534 85 -48 3 -128 0 -207 -10 -118 -14 -133 -18 -182 -51
-57 -37 -67 -62 -43 -107 9 -16 8 -19 -3 -16 -18 6 -278 346 -278 363 0 18 55
60 105 81 52 21 272 30 390 15 169 -22 440 -68 648 -112 l209 -43 135 68 c150
74 149 74 67 122 -55 32 -122 51 -428 119 -293 65 -376 79 -618 105 -164 17
-184 18 -222 4 -22 -9 -63 -22 -89 -31 l-49 -15 21 -22 c21 -23 29 -60 11 -54
-5 2 -79 108 -164 236 -167 252 -227 329 -293 376 -44 31 -43 46 4 46 25 0 88
48 201 155 104 98 200 218 248 309 34 65 36 73 26 110 -6 23 -10 42 -8 43 13
13 41 -52 105 -243 70 -211 78 -230 107 -246 17 -10 106 -35 198 -55 91 -20
166 -40 166 -45 0 -15 -100 -8 -226 17 -213 42 -240 36 -310 -68 -26 -40 -74
-100 -107 -135 -33 -34 -58 -65 -54 -68 3 -3 54 -10 114 -15 207 -18 352 -46
879 -169 117 -28 235 -50 265 -50 30 0 133 11 229 25 96 14 193 25 215 26 94
1 89 8 -141 160 -306 202 -447 269 -565 269 -24 0 -38 4 -34 10 3 6 18 10 33
10 57 0 58 17 1 46 -256 131 -371 175 -476 182 l-84 5 -12 -32 c-6 -17 -14
-31 -18 -31 -4 0 -41 69 -83 153 -41 83 -92 177 -112 207 -20 30 -42 71 -49
90 -7 19 -44 99 -84 177 -39 79 -71 145 -71 148 0 3 13 -1 30 -10 16 -8 37
-15 47 -15 20 0 197 134 303 229 59 52 97 107 115 166 l6 20 15 -20 c8 -11 51
-92 95 -180z m7227 -115 c107 -33 199 -65 203 -71 9 -15 -8 -76 -33 -116 -72
-119 -382 -304 -878 -523 -107 -47 -202 -90 -211 -95 -14 -9 -149 -252 -149
-269 0 -12 110 -6 155 9 239 82 738 311 957 441 117 70 130 80 169 140 42 65
43 79 5 86 -24 4 -34 28 -12 28 9 0 125 -42 258 -94 292 -113 331 -125 431
-133 79 -6 88 -11 61 -34 -55 -46 -101 -239 -111 -469 -8 -184 1 -246 38 -281
16 -15 29 -30 29 -33 0 -20 -47 9 -215 135 -188 141 -189 141 -234 136 -26 -2
-113 -32 -194 -67 -82 -34 -151 -60 -153 -57 -14 14 90 74 231 134 87 38 138
72 157 106 10 19 31 355 22 365 -1 2 -58 -28 -126 -66 -158 -91 -310 -160
-693 -317 -170 -70 -323 -137 -340 -149 -16 -13 -80 -70 -140 -127 -61 -57
-142 -133 -180 -168 l-70 -63 215 6 c435 14 553 35 683 120 36 24 34 15 -5
-30 l-33 -37 35 6 c19 4 80 11 135 17 184 20 306 56 408 122 46 30 48 33 42
65 -6 33 -5 34 17 28 13 -4 60 -29 104 -56 45 -27 127 -69 183 -93 56 -24 145
-69 199 -99 53 -31 136 -75 184 -98 86 -43 100 -59 51 -59 -43 0 -61 -27 -102
-154 -65 -201 -86 -336 -61 -402 6 -15 8 -29 5 -33 -4 -3 -82 32 -173 78 -162
82 -170 88 -268 185 -67 67 -114 124 -138 169 -21 37 -42 67 -47 67 -13 0 -13
-3 37 -126 46 -115 110 -387 98 -417 -7 -19 -137 -69 -157 -61 -25 9 -21 17
20 39 64 35 78 65 76 158 -2 100 -29 190 -112 372 l-59 130 -55 -2 c-96 -3
-475 -72 -518 -93 -22 -12 -72 -47 -112 -80 -291 -238 -377 -311 -377 -320 0
-19 323 -12 464 10 71 11 132 20 135 19 3 0 -23 -12 -59 -26 -90 -34 -217 -42
-670 -43 -206 0 -424 -5 -485 -10 -91 -9 -257 -41 -337 -66 -10 -3 -18 -1 -18
4 0 6 64 32 143 58 282 93 354 129 501 253 50 42 154 128 231 190 162 131 205
168 205 176 0 9 -336 5 -495 -5 -194 -13 -352 -35 -468 -64 -50 -13 -333 -120
-627 -236 -294 -117 -544 -215 -555 -217 -48 -10 58 37 423 188 213 89 459
194 547 234 88 40 171 76 185 80 108 31 268 149 470 344 l145 140 -73 1 c-163
0 -425 -76 -719 -210 -238 -108 -255 -99 -36 20 46 25 142 90 214 145 145 111
174 145 257 310 27 55 58 107 68 116 18 16 181 94 407 195 373 167 619 330
679 449 38 73 39 92 11 125 -20 25 -22 30 -8 30 9 0 105 -27 213 -60z m-8162
-1713 c47 -90 97 -171 125 -201 47 -52 79 -104 79 -129 0 -8 -34 -83 -75 -166
-41 -84 -75 -154 -75 -156 0 -15 213 -58 505 -100 283 -41 567 -64 796 -65
l155 0 75 38 c41 20 89 42 107 49 17 6 32 16 32 21 0 15 -93 35 -195 42 -81 5
-86 7 -51 14 76 17 193 0 391 -58 105 -30 218 -59 252 -66 74 -13 214 -14 481
-5 136 5 201 4 206 -3 4 -7 -18 -13 -61 -17 -357 -32 -691 -122 -858 -231 -75
-49 -68 -48 -190 -25 -88 17 -903 -34 -973 -60 -34 -13 -42 -26 -42 -71 0 -21
-3 -38 -7 -38 -4 0 -41 34 -84 75 -42 41 -84 75 -94 75 -28 0 -166 -76 -224
-124 l-55 -45 -49 36 c-38 28 -51 33 -57 23 -6 -10 -21 -1 -57 38 -71 75 -157
109 -376 147 -36 6 -38 7 -23 24 14 15 25 16 93 9 119 -13 163 0 298 91 33 23
70 41 82 41 12 0 53 -20 90 -44 66 -42 127 -76 137 -76 3 0 4 12 3 27 -2 22 6
31 40 50 34 20 69 26 188 37 80 7 148 15 150 18 3 2 -95 21 -218 41 -122 20
-289 53 -370 73 -143 35 -151 38 -265 112 -64 41 -139 89 -166 106 l-49 31 29
11 c42 17 54 35 129 179 50 98 69 146 75 193 10 75 -3 177 -30 240 -27 60 -26
61 14 23 18 -18 69 -100 112 -184z m8317 -588 c45 -12 262 -173 329 -244 60
-62 74 -101 55 -148 -8 -19 -13 -45 -11 -58 6 -33 -29 -87 -63 -95 -18 -5 -38
-1 -62 12 -46 25 -51 44 -13 44 40 0 51 16 58 88 6 57 5 62 -20 85 -45 42 -96
62 -156 61 -106 -2 -465 -137 -490 -185 -18 -32 -6 -122 20 -158 59 -84 322
-110 552 -57 252 59 565 230 659 359 36 50 37 94 4 166 -35 75 -3 46 37 -33
47 -94 83 -346 58 -411 -16 -41 -127 -151 -205 -204 -56 -37 -225 -112 -350
-155 -28 -10 -11 -18 115 -51 138 -36 239 -76 327 -131 64 -40 86 -62 181
-187 127 -166 147 -195 138 -204 -3 -4 -19 6 -35 21 -45 43 -93 44 -168 4 -34
-18 -90 -55 -124 -83 -35 -27 -85 -68 -113 -90 -46 -37 -158 -168 -206 -240
-27 -40 -25 -100 5 -204 14 -47 23 -86 21 -89 -8 -7 -35 43 -55 99 -27 80 -52
124 -149 272 l-88 132 -28 153 c-15 84 -32 154 -36 157 -16 10 -40 -36 -114
-216 -56 -138 -79 -207 -87 -265 -13 -97 -28 -129 -29 -63 0 41 -5 51 -34 77
-92 80 -553 388 -736 490 -302 169 -343 195 -374 241 -144 208 -358 432 -476
498 -43 24 -186 81 -333 132 -244 86 -306 110 -281 111 6 0 139 -41 295 -91
280 -91 285 -92 384 -92 64 0 123 6 164 17 77 21 422 180 686 316 231 119 430
196 558 214 118 18 144 18 190 5z m-5064 -483 c-7 -7 -101 -44 -329 -131 -124
-47 -249 -100 -278 -118 -76 -45 -169 -149 -223 -247 -54 -99 -221 -448 -280
-589 -55 -129 -78 -173 -167 -326 -62 -106 -92 -145 -161 -212 -105 -102 -126
-109 -324 -117 -231 -8 -296 9 -337 86 -14 25 -33 57 -43 72 -36 49 3 118 74
131 46 9 57 -7 24 -33 -31 -25 -31 -42 0 -92 52 -82 141 -91 232 -23 72 53
272 383 273 448 0 23 -11 42 -44 74 -63 62 -106 65 -209 18 -242 -112 -451
-383 -573 -743 -32 -92 -38 -123 -38 -198 l-1 -88 34 -28 c18 -16 66 -38 105
-49 l71 -21 -56 4 c-33 3 -81 16 -113 31 -73 34 -252 199 -285 261 -24 45 -25
48 -13 149 6 57 20 130 31 162 22 65 129 272 163 315 12 15 19 31 15 34 -4 4
-60 -16 -124 -43 -152 -66 -235 -91 -340 -103 -84 -9 -88 -9 -281 41 -108 28
-200 53 -204 55 -20 13 -4 19 40 16 37 -3 53 1 76 19 30 24 86 130 86 164 0
12 12 66 27 120 24 89 27 118 28 260 0 144 -2 164 -20 195 -17 28 -119 111
-185 150 -8 5 -12 12 -8 16 4 3 47 -16 95 -43 99 -56 201 -98 350 -143 101
-30 104 -32 224 -135 67 -58 126 -105 131 -105 14 0 9 34 -28 175 -43 166 -71
244 -125 342 -23 41 -39 77 -36 79 3 3 10 -4 16 -15 7 -11 26 -28 43 -37 29
-15 50 -15 267 1 376 26 541 46 951 111 69 11 107 12 135 5 22 -5 93 -23 157
-40 169 -44 330 -64 468 -58 l115 4 285 101 c252 89 324 112 309 98z m2468
-193 c43 -26 195 -123 337 -216 143 -93 296 -189 340 -212 223 -120 508 -215
647 -215 51 0 53 -1 138 -82 92 -88 284 -223 604 -423 219 -136 250 -146 287
-95 29 41 35 32 55 -90 8 -52 18 -97 23 -102 18 -18 160 -39 245 -36 71 2 88
0 92 -12 2 -8 9 -34 15 -58 7 -26 15 -40 22 -36 17 11 28 -18 28 -76 0 -70 27
-118 144 -258 47 -57 86 -107 86 -112 0 -5 80 -78 178 -163 176 -154 222 -197
207 -197 -8 0 -228 182 -442 367 -157 135 -162 137 -312 148 -52 4 -100 9
-107 12 -13 5 -32 47 -79 172 l-28 73 -21 -27 c-22 -27 -23 -28 -73 -16 -30 7
-102 43 -172 87 -67 40 -121 71 -121 68 0 -3 65 -74 144 -157 165 -174 278
-304 329 -380 34 -48 164 -384 153 -394 -2 -3 -13 0 -24 6 -36 19 -61 12 -195
-53 -147 -71 -217 -126 -260 -203 -34 -64 -57 -153 -57 -224 0 -51 3 -60 30
-83 30 -25 73 -40 135 -49 17 -2 7 -5 -25 -5 -64 -2 -113 19 -144 61 -18 25
-21 42 -19 136 1 61 11 158 24 226 17 90 22 152 21 247 -2 120 -1 128 22 155
14 16 83 57 165 98 78 38 141 73 141 77 0 30 -536 580 -700 717 -218 183 -366
291 -398 291 -16 0 -64 9 -107 20 -43 11 -82 20 -87 20 -20 0 -4 -25 63 -96
38 -42 68 -79 65 -81 -9 -9 -113 87 -164 151 -26 33 -90 116 -141 183 -107
141 -174 207 -309 299 -53 37 -194 136 -312 220 -118 83 -280 193 -360 244
-136 86 -183 120 -167 120 3 0 41 -21 84 -47z m-269 -526 c119 -149 242 -299
272 -332 31 -33 86 -94 123 -136 37 -42 103 -102 146 -135 122 -89 483 -295
496 -282 9 9 -65 173 -119 263 -79 132 -182 267 -317 414 -129 140 -146 161
-130 161 6 0 55 -42 109 -92 131 -124 335 -265 427 -296 71 -23 216 -52 264
-52 35 0 51 -15 253 -240 210 -233 442 -462 518 -512 130 -84 236 -121 303
-104 15 3 30 18 37 37 23 56 30 10 30 -213 l0 -218 -25 -6 c-38 -9 -114 5
-166 31 -143 73 -402 316 -702 658 -76 87 -148 164 -160 171 -20 12 -242 56
-283 56 -19 0 -14 -29 15 -95 25 -57 349 -442 515 -613 205 -211 319 -310 364
-317 20 -4 51 -14 68 -22 41 -21 64 -12 64 26 0 16 5 33 12 37 8 5 10 -21 5
-107 -32 -536 -30 -605 12 -687 11 -20 72 -94 135 -165 64 -70 116 -129 116
-132 0 -17 -30 10 -145 135 -163 176 -169 179 -334 162 -159 -16 -372 -65
-448 -102 -34 -17 -76 -48 -94 -68 l-31 -37 7 40 c4 22 36 118 71 213 37 100
64 190 64 211 0 47 -20 77 -140 215 -49 57 -90 106 -90 110 0 4 19 -3 41 -16
23 -13 77 -65 121 -116 76 -89 139 -145 178 -157 10 -3 70 10 133 29 63 19
138 38 166 42 28 4 54 11 57 16 4 5 -27 39 -67 75 -151 135 -225 218 -704 783
-66 79 -81 90 -206 159 -74 41 -176 99 -228 129 -51 29 -96 51 -99 48 -10 -11
160 -471 216 -586 44 -89 70 -127 115 -171 31 -31 57 -59 57 -63 0 -3 -14 1
-31 9 -17 9 -33 14 -36 11 -9 -8 114 -263 163 -339 62 -95 146 -177 182 -177
16 0 33 5 40 12 23 23 24 -2 3 -104 -11 -57 -28 -164 -37 -238 -8 -74 -21
-155 -28 -180 -8 -25 -24 -109 -36 -187 -12 -79 -26 -143 -30 -143 -4 0 -13
13 -20 30 -19 45 -65 54 -250 46 -163 -6 -263 -24 -319 -57 -18 -11 -36 -18
-39 -15 -2 3 8 85 22 183 26 172 29 182 83 293 39 81 74 136 119 188 56 64 74
92 60 92 -2 0 -53 -41 -112 -91 -73 -61 -138 -105 -199 -135 -49 -24 -107 -54
-128 -66 l-38 -23 -55 60 c-30 33 -54 68 -54 78 0 23 5 22 57 -15 106 -77 228
-25 494 211 46 41 88 81 93 90 11 19 -201 442 -251 501 -31 36 -156 123 -413
286 -64 41 -122 74 -128 74 -26 0 72 -280 157 -449 29 -57 50 -105 48 -108 -6
-6 -77 97 -104 152 -12 22 -46 119 -77 215 -31 96 -69 211 -85 255 -16 44 -55
161 -86 260 -69 217 -114 324 -190 450 -32 52 -55 98 -52 101 3 3 58 -66 123
-153 141 -191 220 -269 350 -348 54 -33 186 -118 292 -188 107 -70 197 -126
199 -123 3 2 -18 73 -46 156 -181 535 -246 662 -511 1000 -132 169 -367 480
-385 509 -31 52 44 -36 233 -272z m-798 -77 c6 -151 14 -417 18 -590 8 -293
10 -319 31 -373 46 -116 110 -193 442 -528 375 -378 490 -513 549 -646 55
-125 54 -162 -10 -349 -78 -230 -117 -284 -202 -284 -20 0 -48 -5 -62 -11 -20
-9 -32 -8 -62 7 -47 24 -60 61 -38 113 l16 36 17 -35 c16 -33 19 -35 61 -32
64 4 92 21 118 72 48 93 20 167 -144 372 -89 111 -141 164 -176 179 -25 10
-35 8 -86 -17 -80 -40 -95 -72 -88 -184 8 -142 88 -337 200 -486 72 -97 315
-332 389 -377 73 -44 142 -67 182 -59 18 3 50 27 82 61 62 65 70 55 13 -17
-49 -63 -100 -98 -237 -165 -137 -66 -174 -68 -283 -12 -41 21 -93 50 -115 65
-53 36 -171 158 -236 243 -29 37 -56 64 -60 60 -5 -5 -5 -66 0 -136 10 -139 2
-267 -24 -366 -12 -48 -40 -99 -117 -215 -101 -151 -135 -196 -149 -196 -5 0
1 19 11 43 11 23 20 55 20 70 0 55 -138 172 -320 270 -99 53 -304 120 -345
113 -19 -4 -71 -33 -117 -66 -50 -36 -85 -55 -87 -48 -2 7 13 26 35 42 73 57
190 181 261 277 79 107 80 108 246 203 83 48 115 72 108 79 -6 6 -86 17 -178
24 -155 13 -236 13 -383 -2 -53 -5 -54 -5 -25 9 17 8 38 22 47 33 19 21 154
481 197 670 16 70 45 214 65 318 51 272 54 280 123 376 75 103 196 311 233
399 62 151 65 178 63 595 -2 209 -5 477 -7 595 -4 143 -2 203 4 180 5 -19 14
-159 20 -310z m-1542 68 c-12 -18 -63 -89 -114 -158 -157 -216 -174 -250 -229
-479 -28 -115 -114 -419 -141 -500 -7 -22 58 21 264 176 310 234 404 326 594
578 80 107 108 136 108 115 0 -15 -98 -187 -159 -279 -84 -126 -105 -187 -185
-541 -15 -63 -29 -139 -33 -169 l-6 -55 34 24 c155 111 335 339 513 650 88
153 82 144 90 132 3 -5 -14 -47 -37 -93 -57 -110 -77 -164 -133 -344 -46 -149
-46 -150 -40 -250 4 -55 13 -129 21 -166 17 -77 13 -91 -41 -184 -313 -527
-398 -694 -442 -860 -31 -118 -35 -157 -23 -221 13 -71 37 -96 84 -87 29 5 30
4 17 -10 -14 -14 -401 -147 -428 -147 -22 0 -45 71 -44 140 1 155 130 435 422
919 l121 200 -16 118 c-26 196 -23 185 -54 169 -44 -24 -83 -73 -208 -261
-165 -248 -338 -555 -432 -764 -43 -95 -49 -142 -26 -194 5 -13 3 -17 -6 -15
-10 2 -13 -6 -10 -27 4 -37 5 -38 30 -30 13 4 18 11 14 22 -5 13 -3 14 15 4
51 -27 39 -34 -143 -76 -334 -79 -493 -131 -543 -178 -13 -12 -66 -93 -119
-179 -53 -87 -98 -156 -101 -154 -2 3 27 65 66 139 91 177 101 215 78 301 -37
137 -197 415 -290 506 -39 37 -53 45 -86 45 -32 0 -37 2 -27 14 10 12 50 13
247 8 297 -9 262 -26 405 207 125 203 110 110 -17 -106 -55 -93 -70 -127 -75
-170 -5 -52 -4 -54 58 -143 35 -49 78 -116 95 -149 36 -67 29 -74 101 83 83
181 162 315 383 656 204 315 185 271 240 536 26 129 53 247 59 263 7 16 10 31
8 33 -5 4 -319 -233 -427 -322 -129 -107 -209 -202 -225 -267 -4 -15 -13 -32
-20 -38 -10 -8 -12 -1 -7 37 l5 47 -41 -32 c-22 -18 -94 -89 -161 -158 -95
-98 -128 -141 -156 -197 -52 -108 -53 -122 -15 -146 l33 -20 -34 -5 c-19 -3
-96 -13 -171 -21 -76 -9 -169 -25 -207 -36 -39 -10 -97 -19 -128 -19 -32 0
-130 -12 -218 -25 -88 -14 -176 -24 -195 -24 -33 1 -32 2 20 18 98 31 103 36
96 90 -16 118 -143 417 -199 470 -30 27 -69 29 -179 11 -85 -15 -99 -7 -27 14
61 17 467 66 546 66 116 0 238 -29 380 -91 29 -13 56 -19 60 -15 5 5 3 11 -3
13 -55 20 -222 142 -321 235 -65 61 -120 115 -122 120 -5 15 88 148 104 148
19 0 19 -4 -1 -42 -42 -82 6 -189 129 -286 77 -61 311 -202 334 -202 23 0 385
354 407 397 22 45 176 581 176 614 0 36 -260 -158 -389 -290 -98 -100 -111
-110 -90 -71 43 79 143 173 316 296 92 65 185 133 207 152 23 18 105 77 184
131 188 128 317 236 409 344 73 85 117 119 71 55z m1118 -479 c-106 -440 -121
-517 -137 -704 -14 -157 -6 -293 21 -399 l21 -78 -30 -47 c-17 -25 -37 -63
-46 -83 -29 -70 -224 -745 -240 -833 -20 -106 -13 -131 40 -141 19 -3 35 -10
35 -15 0 -6 -44 -31 -97 -57 l-98 -47 1 -85 c1 -62 9 -106 28 -163 14 -42 26
-81 26 -85 0 -4 -23 -22 -50 -41 -39 -27 -47 -37 -39 -47 8 -10 8 -15 -2 -18
-67 -21 -85 -29 -119 -56 -85 -68 -145 -170 -319 -544 -23 -49 -44 -87 -47
-84 -3 3 19 64 49 136 31 72 62 156 71 187 9 31 32 91 51 135 43 96 44 142 10
273 -14 53 -22 103 -19 111 3 8 31 34 62 57 31 24 74 59 95 78 39 35 39 36 16
41 -17 4 -28 17 -37 47 -13 39 -11 53 23 193 21 83 35 153 32 156 -2 2 -21
-28 -42 -68 -102 -196 -268 -474 -329 -552 -27 -33 -305 -256 -321 -256 -3 0
-5 15 -5 34 0 29 -14 50 -100 144 -152 167 -219 202 -390 205 -68 2 -86 5 -77
14 20 19 116 43 217 54 138 14 194 27 264 60 114 54 151 38 304 -130 46 -50
87 -91 92 -91 10 0 95 136 168 267 160 288 265 511 367 775 l106 276 -10 58
c-6 32 -11 84 -11 115 0 98 -21 86 -91 -51 -29 -58 -44 -79 -47 -66 -7 32 73
175 189 336 156 218 190 293 297 660 49 168 116 401 147 518 32 117 60 210 62
208 2 -2 -39 -181 -91 -397z"/>
<path d="M6641 10328 c12 -64 10 -151 -6 -263 -7 -55 -12 -101 -10 -103 1 -2
49 13 105 32 56 20 129 43 163 52 61 16 115 39 152 67 18 14 12 18 -88 66 -58
28 -150 81 -203 117 -125 86 -123 85 -113 32z"/>
<path d="M8416 9940 c-38 -34 -134 -171 -189 -270 -40 -72 -97 -210 -97 -234
0 -17 32 -28 155 -50 175 -33 456 -48 470 -25 4 6 -31 68 -78 137 -46 70 -97
159 -112 197 -15 39 -40 96 -56 127 -16 32 -29 68 -29 80 0 33 -11 68 -21 68
-4 0 -24 -14 -43 -30z"/>
<path d="M7297 9266 c-4 -9 -13 -13 -21 -10 -9 3 -17 -2 -21 -15 -5 -17 -10
-19 -31 -11 -14 6 -27 10 -28 10 -2 0 -6 -14 -10 -31 -3 -18 -13 -37 -22 -44
-15 -10 -16 -27 -8 -144 5 -73 5 -139 1 -147 -5 -8 0 -45 12 -87 11 -39 32
-135 46 -212 14 -77 37 -183 50 -236 25 -99 40 -205 53 -389 6 -96 9 -105 27
-105 19 0 20 6 18 134 -1 74 0 131 4 127 4 -3 10 -54 14 -112 4 -58 9 -108 12
-110 2 -3 12 -1 22 2 15 6 17 15 11 68 -13 122 -17 221 -8 201 5 -11 12 -47
16 -80 13 -116 19 -128 53 -107 10 6 9 31 -7 117 -11 60 -20 142 -20 183 0 41
-9 111 -20 156 -10 44 -26 142 -35 216 -9 74 -29 209 -46 300 -16 91 -32 199
-36 240 -6 82 -16 113 -26 86z"/>
<path d="M8092 9173 c-51 -148 -72 -171 -169 -178 -31 -3 -67 -12 -80 -21 -24
-15 -66 -96 -148 -282 -20 -46 -48 -132 -62 -190 -14 -59 -41 -155 -59 -214
-24 -75 -34 -125 -33 -165 2 -120 -2 -122 164 64 228 254 349 377 588 595 119
110 217 203 217 207 0 12 -38 43 -199 165 -85 64 -162 116 -170 116 -11 0 -26
-30 -49 -97z"/>
<path d="M7450 8967 c0 -16 77 -528 86 -569 8 -39 21 -35 29 10 15 82 99 314
155 431 33 68 60 124 60 125 0 0 -62 1 -137 1 -76 0 -150 3 -165 8 -21 5 -28
4 -28 -6z"/>
<path d="M8111 8481 c-39 -44 -71 -70 -95 -77 l-35 -11 27 32 c33 37 76 104
70 110 -2 2 -69 -67 -149 -153 -129 -140 -145 -161 -144 -192 l0 -35 81 -3 82
-3 71 63 c40 35 84 81 99 103 14 22 55 77 89 122 35 45 63 84 63 86 0 7 -40
19 -73 22 -22 2 -37 -9 -86 -64z"/>
<path d="M3530 9619 c-52 -17 -129 -34 -170 -39 -159 -20 -257 -26 -299 -18
-25 4 -48 5 -53 0 -20 -20 77 -170 204 -314 74 -84 183 -172 203 -164 45 17
238 409 260 529 7 36 6 37 -21 36 -16 0 -72 -14 -124 -30z"/>
<path d="M3903 9266 c-40 -23 -285 -189 -328 -222 -23 -17 -33 -6 98 -111 37
-30 72 -68 82 -90 16 -33 16 -43 5 -83 -23 -80 -23 -93 2 -129 42 -63 281
-273 379 -334 52 -32 134 -87 182 -123 87 -63 173 -99 217 -92 18 3 15 11 -31
88 -143 235 -308 559 -423 829 -67 156 -126 286 -131 288 -6 1 -29 -8 -52 -21z"/>
<path d="M4300 8906 c0 -7 -7 -19 -15 -26 -26 -22 -17 -70 26 -142 33 -56 39
-74 32 -94 -8 -24 -10 -23 -57 46 -27 39 -51 69 -53 66 -3 -3 43 -95 102 -205
76 -143 111 -198 121 -194 7 3 17 -2 20 -11 3 -9 10 -16 15 -16 13 0 69 129
69 160 0 30 -79 198 -102 218 -8 7 -44 57 -79 112 -62 96 -79 115 -79 86z"/>
<path d="M3710 8503 c-21 -83 -51 -152 -85 -198 -14 -20 -9 -21 284 -74 165
-29 304 -52 311 -49 7 2 -48 46 -121 98 -74 53 -183 143 -245 203 -61 59 -113
107 -116 107 -3 0 -15 -39 -28 -87z"/>
<path d="M3298 8226 c-3 -14 1 -31 10 -40 14 -14 14 -18 -3 -36 -16 -18 -17
-23 -5 -30 8 -6 18 -10 22 -10 4 0 14 -12 22 -27 12 -25 27 -31 128 -57 62
-15 124 -36 138 -45 17 -12 64 -22 140 -30 491 -51 797 -100 860 -138 24 -14
32 -15 42 -5 26 26 -7 46 -130 82 -66 20 -124 39 -128 43 -10 10 -11 10 115
-23 62 -17 118 -30 123 -30 5 0 8 10 6 22 -3 19 -17 25 -131 48 -70 14 -132
31 -139 38 -15 15 -17 16 97 -8 119 -24 112 -24 118 1 7 25 -11 32 -123 48
-47 7 -125 23 -175 37 -49 14 -126 30 -170 34 -44 5 -116 18 -160 29 -44 10
-168 33 -275 51 -107 17 -235 40 -285 51 -49 10 -90 19 -91 19 -1 0 -4 -11 -6
-24z"/>
<path d="M2375 8154 c-50 -57 -152 -148 -259 -232 -16 -12 -27 -24 -25 -27 3
-2 36 -10 75 -19 39 -8 122 -37 184 -65 63 -28 115 -49 116 -48 2 1 4 84 5
183 2 169 -6 240 -30 267 -4 4 -34 -23 -66 -59z"/>
<path d="M10335 6774 c-45 -24 -139 -51 -242 -69 -51 -10 -93 -20 -93 -24 0
-4 22 -36 50 -70 27 -34 68 -93 91 -132 37 -62 118 -149 140 -149 4 0 10 19
14 43 22 149 37 222 60 300 36 125 35 130 -20 101z"/>
<path d="M9315 5879 c-60 -23 -122 -41 -137 -41 -15 1 -104 -41 -205 -95 -353
-189 -678 -339 -713 -330 -23 6 -45 -16 -36 -38 7 -20 35 -19 93 4 26 10 80
28 118 39 103 31 54 0 -61 -38 -52 -18 -96 -36 -99 -40 -3 -5 3 -13 13 -19 14
-7 42 0 115 29 86 35 180 62 167 47 -3 -2 -45 -21 -95 -42 -49 -20 -94 -40
-98 -44 -11 -11 2 -41 18 -41 7 0 64 24 126 54 63 30 143 62 179 71 36 9 88
31 115 49 28 18 106 56 175 84 69 28 193 83 275 122 83 40 188 88 235 107 89
37 116 53 87 53 -9 0 -17 7 -17 15 0 8 -9 15 -20 15 -16 0 -20 7 -20 30 0 28
-3 30 -34 30 -19 0 -38 5 -41 10 -9 15 -21 12 -140 -31z"/>
<path d="M9068 5462 c-153 -70 -278 -129 -278 -133 0 -3 80 -9 178 -13 109 -4
230 -15 315 -29 75 -13 137 -19 137 -14 0 5 -14 48 -31 95 -22 62 -32 107 -33
154 0 38 -3 67 -6 67 -3 -1 -130 -58 -282 -127z"/>
<path d="M8557 5269 c-38 -9 -97 -36 -97 -44 0 -3 107 -58 238 -124 362 -181
701 -376 889 -511 31 -22 57 -39 59 -38 6 7 164 406 169 429 l6 25 -121 12
c-156 14 -187 32 -209 117 -20 79 -67 98 -316 130 -121 16 -553 18 -618 4z"/>
<path d="M8700 5050 c0 -6 -11 -8 -26 -4 l-26 7 7 -54 c15 -110 21 -119 125
-181 52 -32 104 -58 115 -58 11 0 61 -17 110 -39 50 -21 101 -42 113 -46 22
-6 23 -5 16 17 -5 12 -8 37 -7 54 1 30 -2 33 -83 69 -63 28 -87 45 -98 66 -8
16 -13 29 -12 29 1 0 40 -15 87 -34 72 -29 105 -37 88 -22 -8 7 -396 206 -402
206 -4 0 -7 -5 -7 -10z"/>
<path d="M9957 5043 c-7 -13 10 -200 27 -298 17 -95 63 -291 71 -306 12 -19
57 18 120 97 37 47 90 104 118 129 146 124 207 172 245 189 39 18 41 20 27 36
-39 43 -247 116 -414 145 -90 16 -187 20 -194 8z"/>
<path d="M3215 5403 c-62 -5 -135 -22 -169 -38 -17 -8 -74 -26 -126 -40 -52
-14 -101 -28 -109 -31 -20 -7 46 -74 73 -74 12 0 54 7 93 17 63 14 76 15 99 2
l26 -14 -28 -6 c-32 -6 -124 -45 -124 -52 0 -3 333 60 408 78 12 3 22 12 22
20 0 7 9 17 20 20 11 3 20 9 19 13 -1 14 -117 101 -140 105 -13 2 -42 2 -64 0z"/>
<path d="M3843 5298 c-6 -7 -34 -56 -62 -110 -46 -86 -81 -134 -81 -113 0 5
23 50 50 101 49 91 50 93 29 104 -11 7 -22 10 -24 8 -1 -2 -31 -59 -65 -128
-34 -69 -77 -142 -95 -163 -18 -21 -43 -66 -55 -100 -12 -34 -55 -123 -95
-197 -83 -154 -295 -575 -295 -585 0 -4 6 -2 14 4 11 9 15 9 19 -1 3 -10 9
-11 25 -1 18 10 23 9 37 -13 l17 -26 26 25 c15 13 33 22 40 20 15 -6 27 8 99
127 29 46 61 91 72 100 11 8 72 137 136 285 165 380 193 437 269 549 66 98 75
126 37 126 -14 0 -40 -33 -93 -115 -40 -63 -77 -115 -81 -115 -5 0 0 15 11 33
11 17 41 66 66 107 25 41 46 78 46 82 0 13 -37 9 -47 -4z"/>
<path d="M3425 5230 c-126 -26 -297 -61 -380 -78 -82 -17 -220 -38 -305 -47
-191 -19 -393 -45 -399 -50 -10 -11 121 -455 135 -455 3 0 50 30 105 66 126
84 153 89 229 40 30 -20 63 -36 74 -36 54 0 356 181 466 279 41 37 102 87 135
111 83 59 143 118 166 162 20 39 24 59 12 57 -5 -1 -111 -23 -238 -49z"/>
<path d="M3410 4943 c-92 -76 -281 -201 -378 -248 -45 -22 -81 -43 -82 -47 0
-3 40 -32 90 -63 49 -31 108 -77 129 -103 l39 -45 97 194 c54 107 117 231 141
276 25 45 41 83 37 86 -4 3 -37 -20 -73 -50z"/>
<path d="M1917 4883 c-4 -3 -7 -54 -7 -112 0 -58 -5 -133 -10 -166 -20 -127
-57 -291 -73 -322 -10 -18 -17 -40 -17 -49 0 -54 330 66 518 189 34 23 62 47
62 54 0 33 -277 296 -392 373 -62 41 -70 45 -81 33z"/>
<path d="M7818 2382 c-20 -31 -64 -88 -98 -127 -59 -67 -83 -107 -101 -167 -9
-34 0 -35 86 -12 35 10 125 19 217 23 86 3 160 9 163 13 4 4 -10 24 -30 45
-43 44 -95 120 -145 216 -19 37 -39 67 -45 67 -5 0 -27 -26 -47 -58z"/>
<path d="M6070 3708 c0 -12 11 -33 23 -47 35 -38 124 -168 105 -153 -8 7 -42
46 -74 87 -32 41 -62 75 -66 75 -4 0 -10 -9 -13 -20 -5 -16 10 -39 68 -103 69
-77 103 -124 95 -132 -2 -2 -35 32 -73 75 -39 43 -72 79 -75 79 -3 0 -14 -6
-25 -14 -18 -15 -16 -18 52 -88 38 -39 96 -103 128 -142 55 -67 177 -198 445
-479 69 -72 159 -167 199 -211 48 -53 71 -72 68 -57 -3 15 0 22 9 22 10 0 13
7 8 24 -5 20 -1 24 26 29 l31 7 -16 31 c-12 22 -13 34 -5 43 8 10 -10 39 -74
122 -47 59 -86 116 -88 125 -2 9 -104 112 -228 228 -124 117 -247 236 -275
265 -106 111 -176 197 -186 226 -14 38 -59 44 -59 8z"/>
<path d="M5992 3335 c-30 -286 -137 -855 -217 -1155 -16 -61 -11 -69 40 -70
17 0 109 -5 205 -10 96 -6 187 -8 201 -5 l26 6 -29 101 c-15 56 -28 117 -28
136 0 43 29 91 69 115 53 31 64 65 51 160 -19 137 -57 300 -95 409 -20 57 -47
141 -61 188 -14 47 -37 106 -51 131 -26 50 -76 109 -91 109 -4 0 -14 -52 -20
-115z"/>
<path d="M5832 3184 c-34 -19 -69 -45 -76 -57 -22 -35 -45 -191 -50 -344 -3
-79 -4 -143 -1 -143 3 0 22 7 44 16 46 18 55 39 66 144 5 47 12 70 28 86 l22
22 -3 -96 c-2 -53 -1 -94 3 -90 3 3 21 106 39 228 27 181 30 223 19 227 -7 3
-13 14 -13 24 0 25 -5 24 -78 -17z"/>
<path d="M6252 3048 c40 -126 81 -314 93 -425 4 -35 11 -63 15 -63 4 0 27 16
51 36 67 56 128 96 174 113 23 9 43 20 44 24 3 10 -398 437 -409 437 -4 0 10
-55 32 -122z"/>
<path d="M6144 1906 c-172 -86 -369 -207 -369 -226 0 -14 42 -34 191 -90 44
-16 110 -50 147 -75 36 -24 85 -54 108 -66 23 -11 64 -41 91 -67 30 -28 52
-42 58 -36 33 33 30 339 -5 509 -22 103 -31 125 -54 125 -10 0 -86 -33 -167
-74z"/>
<path d="M2780 3266 c0 -4 22 -49 49 -99 27 -51 68 -146 91 -212 22 -66 44
-123 48 -127 4 -4 20 17 36 47 16 30 71 100 122 156 52 56 94 105 94 108 0 4
-35 17 -77 30 -43 12 -114 38 -158 57 -74 33 -205 58 -205 40z"/>
</g>
</svg>
